<svg xmlns="http://www.w3.org/2000/svg" xmlns:xlink="http://www.w3.org/1999/xlink" width="400" zoomAndPan="magnify" viewBox="0 0 300 299.999988" height="400" preserveAspectRatio="xMidYMid meet" version="1.0"><defs><filter x="0%" y="0%" width="100%" height="100%" id="id1"><feColorMatrix values="0 0 0 0 1 0 0 0 0 1 0 0 0 0 1 0 0 0 1 0" color-interpolation-filters="sRGB"/></filter><g/><clipPath id="id2"><path d="M 85.507812 17.074219 L 96.007812 17.074219 L 96.007812 27.574219 L 85.507812 27.574219 Z M 85.507812 17.074219 " clip-rule="nonzero"/></clipPath><mask id="id3"><g filter="url(#id1)"><rect x="-30" width="360" fill="#000000" y="-29.999999" height="359.999986" fill-opacity="0.9569"/></g></mask><clipPath id="id4"><path d="M 0 0.167969 L 300 0.167969 L 300 265.667969 L 0 265.667969 Z M 0 0.167969 " clip-rule="nonzero"/></clipPath><clipPath id="id5"><rect x="0" width="300" y="0" height="267"/></clipPath><clipPath id="id6"><path d="M 101 131 L 282.636719 131 L 282.636719 204 L 101 204 Z M 101 131 " clip-rule="nonzero"/></clipPath><clipPath id="id7"><path d="M 36 34.160156 L 282.636719 34.160156 L 282.636719 204 L 36 204 Z M 36 34.160156 " clip-rule="nonzero"/></clipPath><clipPath id="id8"><path d="M 17.136719 119 L 33 119 L 33 204.410156 L 17.136719 204.410156 Z M 17.136719 119 " clip-rule="nonzero"/></clipPath><clipPath id="id9"><path d="M 17.136719 34.160156 L 33 34.160156 L 33 107 L 17.136719 107 Z M 17.136719 34.160156 " clip-rule="nonzero"/></clipPath><clipPath id="id10"><path d="M 109 34.160156 L 165 34.160156 L 165 96 L 109 96 Z M 109 34.160156 " clip-rule="nonzero"/></clipPath><clipPath id="id11"><path d="M 56 34.160156 L 87 34.160156 L 87 99 L 56 99 Z M 56 34.160156 " clip-rule="nonzero"/></clipPath><clipPath id="id12"><path d="M 202 78 L 282.636719 78 L 282.636719 140 L 202 140 Z M 202 78 " clip-rule="nonzero"/></clipPath><clipPath id="id13"><path d="M 173 34.160156 L 282.636719 34.160156 L 282.636719 79 L 173 79 Z M 173 34.160156 " clip-rule="nonzero"/></clipPath><clipPath id="id14"><path d="M 168 174 L 282.636719 174 L 282.636719 204 L 168 204 Z M 168 174 " clip-rule="nonzero"/></clipPath></defs><g clip-path="url(#id2)"><path fill="#7ed3c2" d="M 95.359375 21.675781 L 91.410156 21.675781 L 91.410156 17.726562 C 91.410156 17.367188 91.117188 17.074219 90.757812 17.074219 C 90.398438 17.074219 90.109375 17.367188 90.109375 17.726562 L 90.109375 21.675781 L 86.160156 21.675781 C 85.800781 21.675781 85.507812 21.964844 85.507812 22.324219 C 85.507812 22.683594 85.800781 22.976562 86.160156 22.976562 L 90.109375 22.976562 L 90.109375 26.925781 C 90.109375 27.285156 90.398438 27.574219 90.757812 27.574219 C 91.117188 27.574219 91.410156 27.285156 91.410156 26.925781 L 91.410156 22.976562 L 95.359375 22.976562 C 95.71875 22.976562 96.007812 22.683594 96.007812 22.324219 C 96.007812 21.964844 95.71875 21.675781 95.359375 21.675781 Z M 95.359375 21.675781 " fill-opacity="1" fill-rule="nonzero"/></g><g mask="url(#id3)"><g transform="matrix(1, 0, 0, 1, 0, 17)"><g clip-path="url(#id5)"><g clip-path="url(#id4)"><path fill="#ffffff" d="M 290.644531 265.667969 L 9.355469 265.667969 C 4.203125 265.667969 0.00390625 261.472656 0.00390625 256.324219 L 0.00390625 9.511719 C 0.00390625 4.363281 4.203125 0.167969 9.355469 0.167969 L 290.644531 0.167969 C 295.796875 0.167969 299.996094 4.363281 299.996094 9.511719 L 299.996094 256.324219 C 299.996094 261.472656 295.796875 265.667969 290.644531 265.667969 " fill-opacity="1" fill-rule="nonzero"/></g></g></g></g><path stroke-linecap="round" transform="matrix(29.305312, 0, 0, 28.787697, 171.314903, 251.870898)" fill="none" stroke-linejoin="miter" d="M 0.500041 0.00000680567 L 3.31363 0.00000680567 " stroke="#e16464" stroke-width="1" stroke-opacity="1" stroke-miterlimit="4"/><g clip-path="url(#id6)"><path fill="#b1e5ee" d="M 101.078125 203.785156 L 126.269531 203.785156 C 141.746094 183.410156 171.59375 161.699219 228.082031 164.484375 C 228.082031 164.484375 254.28125 165.765625 282.636719 176.757812 L 282.636719 147.601562 C 250.972656 132.929688 218.730469 131.359375 218.730469 131.359375 C 114.988281 126.226562 101.078125 203.785156 101.078125 203.785156 " fill-opacity="1" fill-rule="nonzero"/></g><g clip-path="url(#id7)"><path fill="#fab441" d="M 104.917969 34.417969 L 90.417969 34.417969 L 90.417969 104.144531 L 51.421875 104.144531 L 51.421875 34.417969 L 36.921875 34.417969 L 36.921875 203.785156 L 51.421875 203.785156 L 51.421875 118.671875 L 93.839844 118.671875 L 151.917969 203.785156 L 169.476562 203.785156 L 109.53125 115.929688 L 282.636719 72.699219 L 282.636719 57.726562 L 104.917969 102.105469 L 104.917969 34.417969 " fill-opacity="1" fill-rule="nonzero"/></g><g clip-path="url(#id8)"><path fill="#d4d1ce" d="M 17.136719 204.417969 L 32.785156 203.785156 L 32.785156 119.109375 L 17.136719 119.109375 L 17.136719 204.417969 " fill-opacity="1" fill-rule="nonzero"/></g><g clip-path="url(#id9)"><path fill="#d4d1ce" d="M 32.785156 106.273438 L 17.136719 106.273438 L 17.136719 34.417969 L 32.785156 34.417969 L 32.785156 106.273438 " fill-opacity="1" fill-rule="nonzero"/></g><path fill="#d4d1ce" d="M 117.125 159.300781 C 117.125 159.300781 98.808594 177.007812 94.824219 202.808594 L 76.613281 202.808594 L 76.613281 174.128906 L 105.0625 142.195312 L 117.125 159.300781 " fill-opacity="1" fill-rule="nonzero"/><g clip-path="url(#id10)"><path fill="#d4d1ce" d="M 132.097656 65.59375 L 132.097656 34.417969 L 109.8125 34.417969 L 109.8125 95.25 L 164.09375 81.5625 L 158.378906 64.460938 L 132.097656 65.59375 " fill-opacity="1" fill-rule="nonzero"/></g><path fill="#d4d1ce" d="M 54.605469 131.121094 L 54.605469 203.785156 L 66.742188 203.785156 L 66.742188 143.050781 L 66.9375 136.117188 L 98.808594 136.117188 L 88.5625 122.234375 L 63.898438 122.234375 L 54.605469 131.121094 " fill-opacity="1" fill-rule="nonzero"/><g clip-path="url(#id11)"><path fill="#42ba3b" d="M 86.09375 40.644531 L 86.09375 91.777344 C 86.09375 95.21875 83.3125 98.003906 79.878906 98.003906 L 62.625 98.003906 C 59.191406 98.003906 56.402344 95.21875 56.402344 91.777344 L 56.402344 40.644531 C 56.402344 37.203125 59.191406 34.417969 62.625 34.417969 L 79.878906 34.417969 C 83.3125 34.417969 86.09375 37.203125 86.09375 40.644531 " fill-opacity="1" fill-rule="nonzero"/></g><path fill="#d4d1ce" d="M 135.035156 143.027344 C 135.035156 143.027344 158.804688 124.480469 199.148438 125.09375 L 191.855469 99.996094 L 118.917969 118.816406 L 135.035156 143.027344 " fill-opacity="1" fill-rule="nonzero"/><g clip-path="url(#id12)"><path fill="#d4d1ce" d="M 210.195312 123.234375 C 210.195312 123.234375 251.90625 121.507812 282.636719 139.265625 L 282.636719 78.851562 L 250.195312 89.171875 L 253.328125 99.996094 L 237.386719 103.417969 L 232.832031 93.730469 L 202.105469 99.996094 L 210.195312 123.234375 " fill-opacity="1" fill-rule="nonzero"/></g><g clip-path="url(#id13)"><path fill="#d4d1ce" d="M 277.460938 34.417969 L 173.128906 34.417969 L 173.128906 78.851562 L 282.636719 52.105469 L 282.636719 39.605469 C 282.636719 36.746094 280.324219 34.417969 277.460938 34.417969 " fill-opacity="1" fill-rule="nonzero"/></g><g clip-path="url(#id14)"><path fill="#42ba3b" d="M 168.417969 185.164062 L 178.625 203.785156 L 277.460938 203.785156 C 280.324219 203.785156 282.636719 201.457031 282.636719 198.589844 L 282.636719 185.164062 C 213.492188 160.558594 168.417969 185.164062 168.417969 185.164062 " fill-opacity="1" fill-rule="nonzero"/></g><path fill="#f14e3e" d="M 36.921875 120.625 C 39.226562 120.625 41.09375 122.496094 41.09375 124.800781 C 41.09375 127.117188 39.226562 128.980469 36.921875 128.980469 C 34.609375 128.980469 32.742188 127.117188 32.742188 124.800781 C 32.742188 122.496094 34.609375 120.625 36.921875 120.625 " fill-opacity="1" fill-rule="nonzero"/><path fill="#f14e3e" d="M 159.78125 62.027344 C 162.082031 62.027344 163.949219 63.898438 163.949219 66.207031 C 163.949219 68.523438 162.082031 70.394531 159.78125 70.394531 C 157.46875 70.394531 155.609375 68.523438 155.609375 66.207031 C 155.609375 63.898438 157.46875 62.027344 159.78125 62.027344 " fill-opacity="1" fill-rule="nonzero"/><path fill="#f14e3e" d="M 72.527344 138.839844 C 74.839844 138.839844 76.707031 140.722656 76.707031 143.027344 C 76.707031 145.335938 74.839844 147.207031 72.527344 147.207031 C 70.226562 147.207031 68.359375 145.335938 68.359375 143.027344 C 68.359375 140.722656 70.226562 138.839844 72.527344 138.839844 " fill-opacity="1" fill-rule="nonzero"/><path fill="#f14e3e" d="M 180.429688 93.824219 C 182.730469 93.824219 184.597656 95.695312 184.597656 98.003906 C 184.597656 100.308594 182.730469 102.191406 180.429688 102.191406 C 178.125 102.191406 176.25 100.308594 176.25 98.003906 C 176.25 95.695312 178.125 93.824219 180.429688 93.824219 " fill-opacity="1" fill-rule="nonzero"/><path fill="#f14e3e" d="M 56.402344 118.058594 C 58.714844 118.058594 60.578125 119.929688 60.578125 122.234375 C 60.578125 124.542969 58.714844 126.421875 56.402344 126.421875 C 54.097656 126.421875 52.230469 124.542969 52.230469 122.234375 C 52.230469 119.929688 54.097656 118.058594 56.402344 118.058594 " fill-opacity="1" fill-rule="nonzero"/><path fill="#f14e3e" d="M 90.273438 95.820312 C 92.574219 95.820312 94.441406 97.691406 94.441406 99.996094 C 94.441406 102.304688 92.574219 104.1875 90.273438 104.1875 C 87.960938 104.1875 86.09375 102.304688 86.09375 99.996094 C 86.09375 97.691406 87.960938 95.820312 90.273438 95.820312 " fill-opacity="1" fill-rule="nonzero"/><path fill="#f14e3e" d="M 89.992188 84.089844 C 92.285156 83.933594 94.277344 85.679688 94.429688 87.976562 C 94.585938 90.28125 92.84375 92.277344 90.550781 92.433594 C 88.25 92.589844 86.257812 90.84375 86.101562 88.546875 C 85.949219 86.238281 87.691406 84.246094 89.992188 84.089844 " fill-opacity="1" fill-rule="nonzero"/><path fill="#f14933" d="M 44.164062 145.59375 L 27.175781 189.300781 L 38.011719 182.253906 C 41.746094 179.824219 46.570312 179.824219 50.300781 182.253906 L 61.152344 189.300781 L 44.164062 145.59375 " fill-opacity="1" fill-rule="nonzero"/><g fill="#121212" fill-opacity="1"><g transform="translate(17.343505, 233.003615)"><g><path d="M 1.1875 -8.796875 L 2.8125 -8.796875 L 2.8125 -1.390625 L 7.421875 -1.390625 L 7.421875 0 L 1.1875 0 Z M 1.1875 -8.796875 "/></g></g></g><g fill="#121212" fill-opacity="1"><g transform="translate(24.874961, 233.003615)"><g><path d="M 1.1875 -8.796875 L 2.8125 -8.796875 L 2.8125 0 L 1.1875 0 Z M 1.1875 -8.796875 "/></g></g></g><g fill="#121212" fill-opacity="1"><g transform="translate(28.88587, 233.003615)"><g/></g></g><g fill="#121212" fill-opacity="1"><g transform="translate(32.356124, 233.003615)"><g><path d="M 2.8125 -7.4375 L 2.8125 -4.75 L 7.0625 -4.75 L 7.0625 -3.375 L 2.8125 -3.375 L 2.8125 0 L 1.1875 0 L 1.1875 -8.796875 L 7.609375 -8.796875 L 7.609375 -7.4375 Z M 2.8125 -7.4375 "/></g></g></g><g fill="#121212" fill-opacity="1"><g transform="translate(40.36537, 233.003615)"><g><path d="M 5.296875 0.125 C 4.398438 0.125 3.585938 -0.0664062 2.859375 -0.453125 C 2.140625 -0.847656 1.570312 -1.390625 1.15625 -2.078125 C 0.75 -2.773438 0.546875 -3.550781 0.546875 -4.40625 C 0.546875 -5.257812 0.75 -6.03125 1.15625 -6.71875 C 1.570312 -7.414062 2.140625 -7.957031 2.859375 -8.34375 C 3.585938 -8.738281 4.398438 -8.9375 5.296875 -8.9375 C 6.191406 -8.9375 7 -8.738281 7.71875 -8.34375 C 8.4375 -7.957031 9 -7.421875 9.40625 -6.734375 C 9.820312 -6.046875 10.03125 -5.269531 10.03125 -4.40625 C 10.03125 -3.539062 9.820312 -2.765625 9.40625 -2.078125 C 9 -1.390625 8.4375 -0.847656 7.71875 -0.453125 C 7 -0.0664062 6.191406 0.125 5.296875 0.125 Z M 5.296875 -1.3125 C 5.878906 -1.3125 6.40625 -1.441406 6.875 -1.703125 C 7.34375 -1.960938 7.710938 -2.328125 7.984375 -2.796875 C 8.253906 -3.273438 8.390625 -3.8125 8.390625 -4.40625 C 8.390625 -4.988281 8.253906 -5.515625 7.984375 -5.984375 C 7.710938 -6.460938 7.34375 -6.832031 6.875 -7.09375 C 6.40625 -7.363281 5.878906 -7.5 5.296875 -7.5 C 4.710938 -7.5 4.179688 -7.363281 3.703125 -7.09375 C 3.234375 -6.832031 2.863281 -6.460938 2.59375 -5.984375 C 2.332031 -5.515625 2.203125 -4.988281 2.203125 -4.40625 C 2.203125 -3.8125 2.332031 -3.273438 2.59375 -2.796875 C 2.863281 -2.328125 3.234375 -1.960938 3.703125 -1.703125 C 4.179688 -1.441406 4.710938 -1.3125 5.296875 -1.3125 Z M 5.296875 -1.3125 "/></g></g></g><g fill="#121212" fill-opacity="1"><g transform="translate(50.952155, 233.003615)"><g><path d="M 9 -8.796875 L 9 0 L 7.65625 0 L 2.8125 -5.96875 L 2.8125 0 L 1.1875 0 L 1.1875 -8.796875 L 2.53125 -8.796875 L 7.390625 -2.84375 L 7.390625 -8.796875 Z M 9 -8.796875 "/></g></g></g><g fill="#121212" fill-opacity="1"><g transform="translate(61.136595, 233.003615)"><g><path d="M 7.1875 -4.5 L 8.734375 -4.5 L 8.734375 -1 C 8.285156 -0.632812 7.757812 -0.351562 7.15625 -0.15625 C 6.550781 0.03125 5.929688 0.125 5.296875 0.125 C 4.398438 0.125 3.585938 -0.0664062 2.859375 -0.453125 C 2.140625 -0.847656 1.570312 -1.390625 1.15625 -2.078125 C 0.75 -2.765625 0.546875 -3.539062 0.546875 -4.40625 C 0.546875 -5.269531 0.75 -6.046875 1.15625 -6.734375 C 1.570312 -7.421875 2.144531 -7.957031 2.875 -8.34375 C 3.601562 -8.738281 4.421875 -8.9375 5.328125 -8.9375 C 6.054688 -8.9375 6.722656 -8.8125 7.328125 -8.5625 C 7.929688 -8.320312 8.441406 -7.96875 8.859375 -7.5 L 7.828125 -6.484375 C 7.148438 -7.160156 6.335938 -7.5 5.390625 -7.5 C 4.773438 -7.5 4.222656 -7.367188 3.734375 -7.109375 C 3.253906 -6.847656 2.878906 -6.484375 2.609375 -6.015625 C 2.335938 -5.546875 2.203125 -5.007812 2.203125 -4.40625 C 2.203125 -3.8125 2.335938 -3.28125 2.609375 -2.8125 C 2.878906 -2.34375 3.253906 -1.972656 3.734375 -1.703125 C 4.222656 -1.441406 4.773438 -1.3125 5.390625 -1.3125 C 6.078125 -1.3125 6.675781 -1.460938 7.1875 -1.765625 Z M 7.1875 -4.5 "/></g></g></g><g fill="#121212" fill-opacity="1"><g transform="translate(70.843245, 233.003615)"><g/></g></g><g fill="#121212" fill-opacity="1"><g transform="translate(74.313499, 233.003615)"><g><path d="M 2.8125 -7.4375 L 2.8125 -4.75 L 7.0625 -4.75 L 7.0625 -3.375 L 2.8125 -3.375 L 2.8125 0 L 1.1875 0 L 1.1875 -8.796875 L 7.609375 -8.796875 L 7.609375 -7.4375 Z M 2.8125 -7.4375 "/></g></g></g><g fill="#121212" fill-opacity="1"><g transform="translate(82.322745, 233.003615)"><g><path d="M 5.296875 0.125 C 4.398438 0.125 3.585938 -0.0664062 2.859375 -0.453125 C 2.140625 -0.847656 1.570312 -1.390625 1.15625 -2.078125 C 0.75 -2.773438 0.546875 -3.550781 0.546875 -4.40625 C 0.546875 -5.257812 0.75 -6.03125 1.15625 -6.71875 C 1.570312 -7.414062 2.140625 -7.957031 2.859375 -8.34375 C 3.585938 -8.738281 4.398438 -8.9375 5.296875 -8.9375 C 6.191406 -8.9375 7 -8.738281 7.71875 -8.34375 C 8.4375 -7.957031 9 -7.421875 9.40625 -6.734375 C 9.820312 -6.046875 10.03125 -5.269531 10.03125 -4.40625 C 10.03125 -3.539062 9.820312 -2.765625 9.40625 -2.078125 C 9 -1.390625 8.4375 -0.847656 7.71875 -0.453125 C 7 -0.0664062 6.191406 0.125 5.296875 0.125 Z M 5.296875 -1.3125 C 5.878906 -1.3125 6.40625 -1.441406 6.875 -1.703125 C 7.34375 -1.960938 7.710938 -2.328125 7.984375 -2.796875 C 8.253906 -3.273438 8.390625 -3.8125 8.390625 -4.40625 C 8.390625 -4.988281 8.253906 -5.515625 7.984375 -5.984375 C 7.710938 -6.460938 7.34375 -6.832031 6.875 -7.09375 C 6.40625 -7.363281 5.878906 -7.5 5.296875 -7.5 C 4.710938 -7.5 4.179688 -7.363281 3.703125 -7.09375 C 3.234375 -6.832031 2.863281 -6.460938 2.59375 -5.984375 C 2.332031 -5.515625 2.203125 -4.988281 2.203125 -4.40625 C 2.203125 -3.8125 2.332031 -3.273438 2.59375 -2.796875 C 2.863281 -2.328125 3.234375 -1.960938 3.703125 -1.703125 C 4.179688 -1.441406 4.710938 -1.3125 5.296875 -1.3125 Z M 5.296875 -1.3125 "/></g></g></g><g fill="#121212" fill-opacity="1"><g transform="translate(92.90953, 233.003615)"><g><path d="M 5.296875 0.125 C 4.398438 0.125 3.585938 -0.0664062 2.859375 -0.453125 C 2.140625 -0.847656 1.570312 -1.390625 1.15625 -2.078125 C 0.75 -2.773438 0.546875 -3.550781 0.546875 -4.40625 C 0.546875 -5.257812 0.75 -6.03125 1.15625 -6.71875 C 1.570312 -7.414062 2.140625 -7.957031 2.859375 -8.34375 C 3.585938 -8.738281 4.398438 -8.9375 5.296875 -8.9375 C 6.191406 -8.9375 7 -8.738281 7.71875 -8.34375 C 8.4375 -7.957031 9 -7.421875 9.40625 -6.734375 C 9.820312 -6.046875 10.03125 -5.269531 10.03125 -4.40625 C 10.03125 -3.539062 9.820312 -2.765625 9.40625 -2.078125 C 9 -1.390625 8.4375 -0.847656 7.71875 -0.453125 C 7 -0.0664062 6.191406 0.125 5.296875 0.125 Z M 5.296875 -1.3125 C 5.878906 -1.3125 6.40625 -1.441406 6.875 -1.703125 C 7.34375 -1.960938 7.710938 -2.328125 7.984375 -2.796875 C 8.253906 -3.273438 8.390625 -3.8125 8.390625 -4.40625 C 8.390625 -4.988281 8.253906 -5.515625 7.984375 -5.984375 C 7.710938 -6.460938 7.34375 -6.832031 6.875 -7.09375 C 6.40625 -7.363281 5.878906 -7.5 5.296875 -7.5 C 4.710938 -7.5 4.179688 -7.363281 3.703125 -7.09375 C 3.234375 -6.832031 2.863281 -6.460938 2.59375 -5.984375 C 2.332031 -5.515625 2.203125 -4.988281 2.203125 -4.40625 C 2.203125 -3.8125 2.332031 -3.273438 2.59375 -2.796875 C 2.863281 -2.328125 3.234375 -1.960938 3.703125 -1.703125 C 4.179688 -1.441406 4.710938 -1.3125 5.296875 -1.3125 Z M 5.296875 -1.3125 "/></g></g></g><g fill="#121212" fill-opacity="1"><g transform="translate(103.496315, 233.003615)"><g><path d="M 1.1875 -8.796875 L 5.03125 -8.796875 C 5.96875 -8.796875 6.800781 -8.613281 7.53125 -8.25 C 8.257812 -7.882812 8.828125 -7.367188 9.234375 -6.703125 C 9.640625 -6.035156 9.84375 -5.269531 9.84375 -4.40625 C 9.84375 -3.53125 9.640625 -2.757812 9.234375 -2.09375 C 8.828125 -1.425781 8.257812 -0.910156 7.53125 -0.546875 C 6.800781 -0.179688 5.96875 0 5.03125 0 L 1.1875 0 Z M 4.953125 -1.390625 C 5.597656 -1.390625 6.164062 -1.507812 6.65625 -1.75 C 7.144531 -2 7.519531 -2.351562 7.78125 -2.8125 C 8.050781 -3.269531 8.1875 -3.800781 8.1875 -4.40625 C 8.1875 -5.007812 8.050781 -5.535156 7.78125 -5.984375 C 7.519531 -6.441406 7.144531 -6.796875 6.65625 -7.046875 C 6.164062 -7.296875 5.597656 -7.421875 4.953125 -7.421875 L 2.8125 -7.421875 L 2.8125 -1.390625 Z M 4.953125 -1.390625 "/></g></g></g><g fill="#121212" fill-opacity="1"><g transform="translate(113.877936, 233.003615)"><g/></g></g><g fill="#121212" fill-opacity="1"><g transform="translate(17.343505, 250.059542)"><g><path d="M 2.53125 -7.203125 L 2.53125 0 L 1.796875 0 L 1.796875 -6.546875 L 0.09375 -6.546875 L 0.09375 -7.203125 Z M 2.53125 -7.203125 "/></g></g></g><g fill="#121212" fill-opacity="1"><g transform="translate(21.057875, 250.059542)"><g><path d="M 5.453125 -0.65625 L 5.453125 0 L 0.40625 0 L 0.40625 -0.53125 L 3.390625 -3.453125 C 3.773438 -3.828125 4.03125 -4.148438 4.15625 -4.421875 C 4.289062 -4.691406 4.359375 -4.960938 4.359375 -5.234375 C 4.359375 -5.660156 4.210938 -5.992188 3.921875 -6.234375 C 3.628906 -6.472656 3.210938 -6.59375 2.671875 -6.59375 C 1.828125 -6.59375 1.171875 -6.320312 0.703125 -5.78125 L 0.1875 -6.234375 C 0.46875 -6.566406 0.828125 -6.820312 1.265625 -7 C 1.703125 -7.175781 2.191406 -7.265625 2.734375 -7.265625 C 3.472656 -7.265625 4.054688 -7.09375 4.484375 -6.75 C 4.910156 -6.40625 5.125 -5.929688 5.125 -5.328125 C 5.125 -4.953125 5.039062 -4.59375 4.875 -4.25 C 4.71875 -3.90625 4.40625 -3.507812 3.9375 -3.0625 L 1.5 -0.65625 Z M 5.453125 -0.65625 "/></g></g></g><g fill="#121212" fill-opacity="1"><g transform="translate(26.902092, 250.059542)"><g><path d="M 2.984375 -4.125 C 3.742188 -4.082031 4.316406 -3.875 4.703125 -3.5 C 5.097656 -3.132812 5.296875 -2.65625 5.296875 -2.0625 C 5.296875 -1.65625 5.195312 -1.289062 5 -0.96875 C 4.800781 -0.65625 4.503906 -0.40625 4.109375 -0.21875 C 3.722656 -0.03125 3.25 0.0625 2.6875 0.0625 C 2.164062 0.0625 1.671875 -0.0195312 1.203125 -0.1875 C 0.742188 -0.351562 0.375 -0.578125 0.09375 -0.859375 L 0.453125 -1.453125 C 0.691406 -1.203125 1.007812 -1 1.40625 -0.84375 C 1.8125 -0.695312 2.238281 -0.625 2.6875 -0.625 C 3.28125 -0.625 3.738281 -0.75 4.0625 -1 C 4.382812 -1.257812 4.546875 -1.613281 4.546875 -2.0625 C 4.546875 -2.507812 4.382812 -2.859375 4.0625 -3.109375 C 3.738281 -3.367188 3.25 -3.5 2.59375 -3.5 L 2.078125 -3.5 L 2.078125 -4.046875 L 4.078125 -6.546875 L 0.390625 -6.546875 L 0.390625 -7.203125 L 5.03125 -7.203125 L 5.03125 -6.6875 Z M 2.984375 -4.125 "/></g></g></g><g fill="#121212" fill-opacity="1"><g transform="translate(32.705155, 250.059542)"><g/></g></g><g fill="#121212" fill-opacity="1"><g transform="translate(35.400902, 250.059542)"><g><path d="M 5.6875 -1.921875 L 1.671875 -1.921875 L 0.8125 0 L 0.015625 0 L 3.3125 -7.203125 L 4.0625 -7.203125 L 7.359375 0 L 6.5625 0 Z M 5.421875 -2.546875 L 3.6875 -6.421875 L 1.953125 -2.546875 Z M 5.421875 -2.546875 "/></g></g></g><g fill="#121212" fill-opacity="1"><g transform="translate(42.778197, 250.059542)"><g><path d="M 3.78125 -5.453125 C 4.457031 -5.453125 4.992188 -5.253906 5.390625 -4.859375 C 5.796875 -4.460938 6 -3.890625 6 -3.140625 L 6 0 L 5.265625 0 L 5.265625 -3.0625 C 5.265625 -3.625 5.125 -4.050781 4.84375 -4.34375 C 4.5625 -4.644531 4.160156 -4.796875 3.640625 -4.796875 C 3.054688 -4.796875 2.59375 -4.625 2.25 -4.28125 C 1.914062 -3.9375 1.75 -3.457031 1.75 -2.84375 L 1.75 0 L 1.015625 0 L 1.015625 -5.421875 L 1.71875 -5.421875 L 1.71875 -4.421875 C 1.914062 -4.742188 2.191406 -4.992188 2.546875 -5.171875 C 2.898438 -5.359375 3.3125 -5.453125 3.78125 -5.453125 Z M 3.78125 -5.453125 "/></g></g></g><g fill="#121212" fill-opacity="1"><g transform="translate(49.74393, 250.059542)"><g><path d="M 5.578125 -5.421875 L 2.859375 0.65625 C 2.640625 1.15625 2.382812 1.507812 2.09375 1.71875 C 1.8125 1.9375 1.46875 2.046875 1.0625 2.046875 C 0.800781 2.046875 0.554688 2.003906 0.328125 1.921875 C 0.0976562 1.835938 -0.09375 1.71875 -0.25 1.5625 L 0.078125 1.015625 C 0.359375 1.285156 0.691406 1.421875 1.078125 1.421875 C 1.316406 1.421875 1.523438 1.351562 1.703125 1.21875 C 1.878906 1.082031 2.039062 0.847656 2.1875 0.515625 L 2.4375 -0.015625 L 0.015625 -5.421875 L 0.765625 -5.421875 L 2.8125 -0.8125 L 4.84375 -5.421875 Z M 5.578125 -5.421875 "/></g></g></g><g fill="#121212" fill-opacity="1"><g transform="translate(55.320632, 250.059542)"><g><path d="M 8.96875 -5.421875 L 6.921875 0 L 6.234375 0 L 4.515625 -4.4375 L 2.8125 0 L 2.125 0 L 0.078125 -5.421875 L 0.78125 -5.421875 L 2.484375 -0.8125 L 4.21875 -5.421875 L 4.84375 -5.421875 L 6.578125 -0.8125 L 8.296875 -5.421875 Z M 8.96875 -5.421875 "/></g></g></g><g fill="#121212" fill-opacity="1"><g transform="translate(64.364762, 250.059542)"><g><path d="M 3.78125 -5.453125 C 4.457031 -5.453125 4.992188 -5.253906 5.390625 -4.859375 C 5.796875 -4.460938 6 -3.890625 6 -3.140625 L 6 0 L 5.265625 0 L 5.265625 -3.0625 C 5.265625 -3.625 5.125 -4.050781 4.84375 -4.34375 C 4.5625 -4.644531 4.160156 -4.796875 3.640625 -4.796875 C 3.054688 -4.796875 2.59375 -4.625 2.25 -4.28125 C 1.914062 -3.9375 1.75 -3.457031 1.75 -2.84375 L 1.75 0 L 1.015625 0 L 1.015625 -7.640625 L 1.75 -7.640625 L 1.75 -4.46875 C 1.945312 -4.78125 2.21875 -5.019531 2.5625 -5.1875 C 2.914062 -5.363281 3.320312 -5.453125 3.78125 -5.453125 Z M 3.78125 -5.453125 "/></g></g></g><g fill="#121212" fill-opacity="1"><g transform="translate(71.330494, 250.059542)"><g><path d="M 5.734375 -2.484375 L 1.203125 -2.484375 C 1.242188 -1.921875 1.457031 -1.460938 1.84375 -1.109375 C 2.238281 -0.765625 2.738281 -0.59375 3.34375 -0.59375 C 3.675781 -0.59375 3.984375 -0.648438 4.265625 -0.765625 C 4.546875 -0.890625 4.789062 -1.070312 5 -1.3125 L 5.40625 -0.828125 C 5.164062 -0.546875 4.863281 -0.328125 4.5 -0.171875 C 4.144531 -0.0234375 3.75 0.046875 3.3125 0.046875 C 2.757812 0.046875 2.265625 -0.0664062 1.828125 -0.296875 C 1.398438 -0.535156 1.066406 -0.863281 0.828125 -1.28125 C 0.585938 -1.707031 0.46875 -2.179688 0.46875 -2.703125 C 0.46875 -3.234375 0.582031 -3.707031 0.8125 -4.125 C 1.039062 -4.539062 1.359375 -4.863281 1.765625 -5.09375 C 2.171875 -5.332031 2.625 -5.453125 3.125 -5.453125 C 3.625 -5.453125 4.070312 -5.332031 4.46875 -5.09375 C 4.863281 -4.863281 5.175781 -4.539062 5.40625 -4.125 C 5.632812 -3.71875 5.75 -3.242188 5.75 -2.703125 Z M 3.125 -4.828125 C 2.601562 -4.828125 2.164062 -4.660156 1.8125 -4.328125 C 1.457031 -3.992188 1.253906 -3.5625 1.203125 -3.03125 L 5.046875 -3.03125 C 4.992188 -3.5625 4.789062 -3.992188 4.4375 -4.328125 C 4.082031 -4.660156 3.644531 -4.828125 3.125 -4.828125 Z M 3.125 -4.828125 "/></g></g></g><g fill="#121212" fill-opacity="1"><g transform="translate(77.54512, 250.059542)"><g><path d="M 1.71875 -4.359375 C 1.894531 -4.722656 2.148438 -4.992188 2.484375 -5.171875 C 2.828125 -5.359375 3.25 -5.453125 3.75 -5.453125 L 3.75 -4.75 L 3.578125 -4.75 C 3.003906 -4.75 2.554688 -4.570312 2.234375 -4.21875 C 1.910156 -3.875 1.75 -3.390625 1.75 -2.765625 L 1.75 0 L 1.015625 0 L 1.015625 -5.421875 L 1.71875 -5.421875 Z M 1.71875 -4.359375 "/></g></g></g><g fill="#121212" fill-opacity="1"><g transform="translate(81.671058, 250.059542)"><g><path d="M 5.734375 -2.484375 L 1.203125 -2.484375 C 1.242188 -1.921875 1.457031 -1.460938 1.84375 -1.109375 C 2.238281 -0.765625 2.738281 -0.59375 3.34375 -0.59375 C 3.675781 -0.59375 3.984375 -0.648438 4.265625 -0.765625 C 4.546875 -0.890625 4.789062 -1.070312 5 -1.3125 L 5.40625 -0.828125 C 5.164062 -0.546875 4.863281 -0.328125 4.5 -0.171875 C 4.144531 -0.0234375 3.75 0.046875 3.3125 0.046875 C 2.757812 0.046875 2.265625 -0.0664062 1.828125 -0.296875 C 1.398438 -0.535156 1.066406 -0.863281 0.828125 -1.28125 C 0.585938 -1.707031 0.46875 -2.179688 0.46875 -2.703125 C 0.46875 -3.234375 0.582031 -3.707031 0.8125 -4.125 C 1.039062 -4.539062 1.359375 -4.863281 1.765625 -5.09375 C 2.171875 -5.332031 2.625 -5.453125 3.125 -5.453125 C 3.625 -5.453125 4.070312 -5.332031 4.46875 -5.09375 C 4.863281 -4.863281 5.175781 -4.539062 5.40625 -4.125 C 5.632812 -3.71875 5.75 -3.242188 5.75 -2.703125 Z M 3.125 -4.828125 C 2.601562 -4.828125 2.164062 -4.660156 1.8125 -4.328125 C 1.457031 -3.992188 1.253906 -3.5625 1.203125 -3.03125 L 5.046875 -3.03125 C 4.992188 -3.5625 4.789062 -3.992188 4.4375 -4.328125 C 4.082031 -4.660156 3.644531 -4.828125 3.125 -4.828125 Z M 3.125 -4.828125 "/></g></g></g><g fill="#121212" fill-opacity="1"><g transform="translate(87.885683, 250.059542)"><g/></g></g><g fill="#121212" fill-opacity="1"><g transform="translate(90.581431, 250.059542)"><g><path d="M 3.15625 0.0625 C 2.625 0.0625 2.113281 -0.0195312 1.625 -0.1875 C 1.132812 -0.363281 0.753906 -0.59375 0.484375 -0.875 L 0.78125 -1.46875 C 1.039062 -1.207031 1.382812 -0.992188 1.8125 -0.828125 C 2.25 -0.671875 2.695312 -0.59375 3.15625 -0.59375 C 3.800781 -0.59375 4.285156 -0.707031 4.609375 -0.9375 C 4.929688 -1.175781 5.09375 -1.484375 5.09375 -1.859375 C 5.09375 -2.148438 5.003906 -2.378906 4.828125 -2.546875 C 4.660156 -2.722656 4.445312 -2.859375 4.1875 -2.953125 C 3.9375 -3.046875 3.582031 -3.144531 3.125 -3.25 C 2.582031 -3.382812 2.148438 -3.515625 1.828125 -3.640625 C 1.503906 -3.773438 1.226562 -3.972656 1 -4.234375 C 0.769531 -4.492188 0.65625 -4.847656 0.65625 -5.296875 C 0.65625 -5.660156 0.75 -5.988281 0.9375 -6.28125 C 1.132812 -6.582031 1.429688 -6.820312 1.828125 -7 C 2.234375 -7.175781 2.726562 -7.265625 3.3125 -7.265625 C 3.726562 -7.265625 4.132812 -7.207031 4.53125 -7.09375 C 4.925781 -6.988281 5.265625 -6.832031 5.546875 -6.625 L 5.296875 -6.03125 C 4.992188 -6.226562 4.671875 -6.375 4.328125 -6.46875 C 3.984375 -6.570312 3.644531 -6.625 3.3125 -6.625 C 2.6875 -6.625 2.210938 -6.5 1.890625 -6.25 C 1.566406 -6.007812 1.40625 -5.695312 1.40625 -5.3125 C 1.40625 -5.019531 1.492188 -4.785156 1.671875 -4.609375 C 1.847656 -4.441406 2.066406 -4.3125 2.328125 -4.21875 C 2.597656 -4.125 2.953125 -4.019531 3.390625 -3.90625 C 3.921875 -3.78125 4.347656 -3.65625 4.671875 -3.53125 C 5.003906 -3.40625 5.28125 -3.210938 5.5 -2.953125 C 5.726562 -2.691406 5.84375 -2.34375 5.84375 -1.90625 C 5.84375 -1.539062 5.742188 -1.207031 5.546875 -0.90625 C 5.359375 -0.613281 5.0625 -0.378906 4.65625 -0.203125 C 4.25 -0.0234375 3.75 0.0625 3.15625 0.0625 Z M 3.15625 0.0625 "/></g></g></g><g fill="#121212" fill-opacity="1"><g transform="translate(96.90924, 250.059542)"><g><path d="M 3.875 -0.328125 C 3.738281 -0.203125 3.566406 -0.109375 3.359375 -0.046875 C 3.160156 0.015625 2.953125 0.046875 2.734375 0.046875 C 2.222656 0.046875 1.828125 -0.0859375 1.546875 -0.359375 C 1.273438 -0.628906 1.140625 -1.019531 1.140625 -1.53125 L 1.140625 -4.796875 L 0.171875 -4.796875 L 0.171875 -5.421875 L 1.140625 -5.421875 L 1.140625 -6.59375 L 1.875 -6.59375 L 1.875 -5.421875 L 3.515625 -5.421875 L 3.515625 -4.796875 L 1.875 -4.796875 L 1.875 -1.5625 C 1.875 -1.238281 1.953125 -0.992188 2.109375 -0.828125 C 2.273438 -0.660156 2.507812 -0.578125 2.8125 -0.578125 C 2.957031 -0.578125 3.097656 -0.597656 3.234375 -0.640625 C 3.378906 -0.691406 3.503906 -0.765625 3.609375 -0.859375 Z M 3.875 -0.328125 "/></g></g></g><g fill="#121212" fill-opacity="1"><g transform="translate(101.086621, 250.059542)"><g><path d="M 1.09375 0.046875 C 0.9375 0.046875 0.804688 -0.00390625 0.703125 -0.109375 C 0.597656 -0.222656 0.546875 -0.359375 0.546875 -0.515625 C 0.546875 -0.671875 0.597656 -0.800781 0.703125 -0.90625 C 0.804688 -1.019531 0.9375 -1.078125 1.09375 -1.078125 C 1.238281 -1.078125 1.363281 -1.019531 1.46875 -0.90625 C 1.582031 -0.800781 1.640625 -0.671875 1.640625 -0.515625 C 1.640625 -0.359375 1.582031 -0.222656 1.46875 -0.109375 C 1.363281 -0.00390625 1.238281 0.046875 1.09375 0.046875 Z M 1.09375 0.046875 "/></g></g></g><g fill="#121212" fill-opacity="1"><g transform="translate(103.267913, 250.059542)"><g><path d="M 1.109375 -1.078125 C 1.265625 -1.078125 1.390625 -1.019531 1.484375 -0.90625 C 1.585938 -0.800781 1.640625 -0.671875 1.640625 -0.515625 C 1.640625 -0.429688 1.628906 -0.34375 1.609375 -0.25 C 1.585938 -0.15625 1.550781 -0.046875 1.5 0.078125 L 1.078125 1.5 L 0.578125 1.5 L 0.921875 0.015625 C 0.816406 -0.0234375 0.726562 -0.0859375 0.65625 -0.171875 C 0.59375 -0.265625 0.5625 -0.378906 0.5625 -0.515625 C 0.5625 -0.671875 0.609375 -0.800781 0.703125 -0.90625 C 0.804688 -1.019531 0.941406 -1.078125 1.109375 -1.078125 Z M 1.109375 -1.078125 "/></g></g></g><g fill="#121212" fill-opacity="1"><g transform="translate(105.449204, 250.059542)"><g/></g></g><g fill="#121212" fill-opacity="1"><g transform="translate(108.144951, 250.059542)"><g><path d="M 5.6875 -1.921875 L 1.671875 -1.921875 L 0.8125 0 L 0.015625 0 L 3.3125 -7.203125 L 4.0625 -7.203125 L 7.359375 0 L 6.5625 0 Z M 5.421875 -2.546875 L 3.6875 -6.421875 L 1.953125 -2.546875 Z M 5.421875 -2.546875 "/></g></g></g><g fill="#121212" fill-opacity="1"><g transform="translate(115.522246, 250.059542)"><g><path d="M 3.78125 -5.453125 C 4.457031 -5.453125 4.992188 -5.253906 5.390625 -4.859375 C 5.796875 -4.460938 6 -3.890625 6 -3.140625 L 6 0 L 5.265625 0 L 5.265625 -3.0625 C 5.265625 -3.625 5.125 -4.050781 4.84375 -4.34375 C 4.5625 -4.644531 4.160156 -4.796875 3.640625 -4.796875 C 3.054688 -4.796875 2.59375 -4.625 2.25 -4.28125 C 1.914062 -3.9375 1.75 -3.457031 1.75 -2.84375 L 1.75 0 L 1.015625 0 L 1.015625 -5.421875 L 1.71875 -5.421875 L 1.71875 -4.421875 C 1.914062 -4.742188 2.191406 -4.992188 2.546875 -5.171875 C 2.898438 -5.359375 3.3125 -5.453125 3.78125 -5.453125 Z M 3.78125 -5.453125 "/></g></g></g><g fill="#121212" fill-opacity="1"><g transform="translate(122.487979, 250.059542)"><g><path d="M 5.578125 -5.421875 L 2.859375 0.65625 C 2.640625 1.15625 2.382812 1.507812 2.09375 1.71875 C 1.8125 1.9375 1.46875 2.046875 1.0625 2.046875 C 0.800781 2.046875 0.554688 2.003906 0.328125 1.921875 C 0.0976562 1.835938 -0.09375 1.71875 -0.25 1.5625 L 0.078125 1.015625 C 0.359375 1.285156 0.691406 1.421875 1.078125 1.421875 C 1.316406 1.421875 1.523438 1.351562 1.703125 1.21875 C 1.878906 1.082031 2.039062 0.847656 2.1875 0.515625 L 2.4375 -0.015625 L 0.015625 -5.421875 L 0.765625 -5.421875 L 2.8125 -0.8125 L 4.84375 -5.421875 Z M 5.578125 -5.421875 "/></g></g></g><g fill="#121212" fill-opacity="1"><g transform="translate(128.064681, 250.059542)"><g/></g></g><g fill="#121212" fill-opacity="1"><g transform="translate(130.760422, 250.059542)"><g><path d="M 4.296875 0.0625 C 3.585938 0.0625 2.945312 -0.09375 2.375 -0.40625 C 1.800781 -0.726562 1.347656 -1.164062 1.015625 -1.71875 C 0.691406 -2.28125 0.53125 -2.910156 0.53125 -3.609375 C 0.53125 -4.296875 0.691406 -4.921875 1.015625 -5.484375 C 1.347656 -6.046875 1.800781 -6.484375 2.375 -6.796875 C 2.957031 -7.109375 3.601562 -7.265625 4.3125 -7.265625 C 4.851562 -7.265625 5.347656 -7.175781 5.796875 -7 C 6.253906 -6.820312 6.640625 -6.5625 6.953125 -6.21875 L 6.46875 -5.734375 C 5.90625 -6.304688 5.191406 -6.59375 4.328125 -6.59375 C 3.765625 -6.59375 3.25 -6.460938 2.78125 -6.203125 C 2.3125 -5.941406 1.941406 -5.582031 1.671875 -5.125 C 1.410156 -4.675781 1.28125 -4.171875 1.28125 -3.609375 C 1.28125 -3.046875 1.410156 -2.535156 1.671875 -2.078125 C 1.941406 -1.628906 2.3125 -1.273438 2.78125 -1.015625 C 3.25 -0.753906 3.765625 -0.625 4.328125 -0.625 C 5.191406 -0.625 5.90625 -0.910156 6.46875 -1.484375 L 6.953125 -1 C 6.640625 -0.65625 6.253906 -0.390625 5.796875 -0.203125 C 5.335938 -0.0234375 4.835938 0.0625 4.296875 0.0625 Z M 4.296875 0.0625 "/></g></g></g><g fill="#121212" fill-opacity="1"><g transform="translate(138.158297, 250.059542)"><g><path d="M 1.015625 -5.421875 L 1.75 -5.421875 L 1.75 0 L 1.015625 0 Z M 1.390625 -6.59375 C 1.242188 -6.59375 1.117188 -6.644531 1.015625 -6.75 C 0.910156 -6.851562 0.859375 -6.976562 0.859375 -7.125 C 0.859375 -7.257812 0.910156 -7.378906 1.015625 -7.484375 C 1.117188 -7.585938 1.242188 -7.640625 1.390625 -7.640625 C 1.546875 -7.640625 1.675781 -7.585938 1.78125 -7.484375 C 1.882812 -7.390625 1.9375 -7.273438 1.9375 -7.140625 C 1.9375 -6.984375 1.882812 -6.851562 1.78125 -6.75 C 1.675781 -6.644531 1.546875 -6.59375 1.390625 -6.59375 Z M 1.390625 -6.59375 "/></g></g></g><g fill="#121212" fill-opacity="1"><g transform="translate(140.926061, 250.059542)"><g><path d="M 3.875 -0.328125 C 3.738281 -0.203125 3.566406 -0.109375 3.359375 -0.046875 C 3.160156 0.015625 2.953125 0.046875 2.734375 0.046875 C 2.222656 0.046875 1.828125 -0.0859375 1.546875 -0.359375 C 1.273438 -0.628906 1.140625 -1.019531 1.140625 -1.53125 L 1.140625 -4.796875 L 0.171875 -4.796875 L 0.171875 -5.421875 L 1.140625 -5.421875 L 1.140625 -6.59375 L 1.875 -6.59375 L 1.875 -5.421875 L 3.515625 -5.421875 L 3.515625 -4.796875 L 1.875 -4.796875 L 1.875 -1.5625 C 1.875 -1.238281 1.953125 -0.992188 2.109375 -0.828125 C 2.273438 -0.660156 2.507812 -0.578125 2.8125 -0.578125 C 2.957031 -0.578125 3.097656 -0.597656 3.234375 -0.640625 C 3.378906 -0.691406 3.503906 -0.765625 3.609375 -0.859375 Z M 3.875 -0.328125 "/></g></g></g><g fill="#121212" fill-opacity="1"><g transform="translate(145.103436, 250.059542)"><g><path d="M 5.578125 -5.421875 L 2.859375 0.65625 C 2.640625 1.15625 2.382812 1.507812 2.09375 1.71875 C 1.8125 1.9375 1.46875 2.046875 1.0625 2.046875 C 0.800781 2.046875 0.554688 2.003906 0.328125 1.921875 C 0.0976562 1.835938 -0.09375 1.71875 -0.25 1.5625 L 0.078125 1.015625 C 0.359375 1.285156 0.691406 1.421875 1.078125 1.421875 C 1.316406 1.421875 1.523438 1.351562 1.703125 1.21875 C 1.878906 1.082031 2.039062 0.847656 2.1875 0.515625 L 2.4375 -0.015625 L 0.015625 -5.421875 L 0.765625 -5.421875 L 2.8125 -0.8125 L 4.84375 -5.421875 Z M 5.578125 -5.421875 "/></g></g></g><g fill="#121212" fill-opacity="1"><g transform="translate(150.680138, 250.059542)"><g><path d="M 1.109375 -1.078125 C 1.265625 -1.078125 1.390625 -1.019531 1.484375 -0.90625 C 1.585938 -0.800781 1.640625 -0.671875 1.640625 -0.515625 C 1.640625 -0.429688 1.628906 -0.34375 1.609375 -0.25 C 1.585938 -0.15625 1.550781 -0.046875 1.5 0.078125 L 1.078125 1.5 L 0.578125 1.5 L 0.921875 0.015625 C 0.816406 -0.0234375 0.726562 -0.0859375 0.65625 -0.171875 C 0.59375 -0.265625 0.5625 -0.378906 0.5625 -0.515625 C 0.5625 -0.671875 0.609375 -0.800781 0.703125 -0.90625 C 0.804688 -1.019531 0.941406 -1.078125 1.109375 -1.078125 Z M 1.109375 -1.078125 "/></g></g></g><g fill="#121212" fill-opacity="1"><g transform="translate(17.343505, 262.920975)"><g><path d="M 3.15625 0.0625 C 2.625 0.0625 2.113281 -0.0195312 1.625 -0.1875 C 1.132812 -0.363281 0.753906 -0.59375 0.484375 -0.875 L 0.78125 -1.46875 C 1.039062 -1.207031 1.382812 -0.992188 1.8125 -0.828125 C 2.25 -0.671875 2.695312 -0.59375 3.15625 -0.59375 C 3.800781 -0.59375 4.285156 -0.707031 4.609375 -0.9375 C 4.929688 -1.175781 5.09375 -1.484375 5.09375 -1.859375 C 5.09375 -2.148438 5.003906 -2.378906 4.828125 -2.546875 C 4.660156 -2.722656 4.445312 -2.859375 4.1875 -2.953125 C 3.9375 -3.046875 3.582031 -3.144531 3.125 -3.25 C 2.582031 -3.382812 2.148438 -3.515625 1.828125 -3.640625 C 1.503906 -3.773438 1.226562 -3.972656 1 -4.234375 C 0.769531 -4.492188 0.65625 -4.847656 0.65625 -5.296875 C 0.65625 -5.660156 0.75 -5.988281 0.9375 -6.28125 C 1.132812 -6.582031 1.429688 -6.820312 1.828125 -7 C 2.234375 -7.175781 2.726562 -7.265625 3.3125 -7.265625 C 3.726562 -7.265625 4.132812 -7.207031 4.53125 -7.09375 C 4.925781 -6.988281 5.265625 -6.832031 5.546875 -6.625 L 5.296875 -6.03125 C 4.992188 -6.226562 4.671875 -6.375 4.328125 -6.46875 C 3.984375 -6.570312 3.644531 -6.625 3.3125 -6.625 C 2.6875 -6.625 2.210938 -6.5 1.890625 -6.25 C 1.566406 -6.007812 1.40625 -5.695312 1.40625 -5.3125 C 1.40625 -5.019531 1.492188 -4.785156 1.671875 -4.609375 C 1.847656 -4.441406 2.066406 -4.3125 2.328125 -4.21875 C 2.597656 -4.125 2.953125 -4.019531 3.390625 -3.90625 C 3.921875 -3.78125 4.347656 -3.65625 4.671875 -3.53125 C 5.003906 -3.40625 5.28125 -3.210938 5.5 -2.953125 C 5.726562 -2.691406 5.84375 -2.34375 5.84375 -1.90625 C 5.84375 -1.539062 5.742188 -1.207031 5.546875 -0.90625 C 5.359375 -0.613281 5.0625 -0.378906 4.65625 -0.203125 C 4.25 -0.0234375 3.75 0.0625 3.15625 0.0625 Z M 3.15625 0.0625 "/></g></g></g><g fill="#121212" fill-opacity="1"><g transform="translate(23.671315, 262.920975)"><g><path d="M 2.578125 -6.546875 L 0.046875 -6.546875 L 0.046875 -7.203125 L 5.875 -7.203125 L 5.875 -6.546875 L 3.34375 -6.546875 L 3.34375 0 L 2.578125 0 Z M 2.578125 -6.546875 "/></g></g></g><g fill="#121212" fill-opacity="1"><g transform="translate(29.577265, 262.920975)"><g/></g></g><g fill="#121212" fill-opacity="1"><g transform="translate(32.273013, 262.920975)"><g><path d="M 2.53125 -7.203125 L 2.53125 0 L 1.796875 0 L 1.796875 -6.546875 L 0.09375 -6.546875 L 0.09375 -7.203125 Z M 2.53125 -7.203125 "/></g></g></g><g fill="#121212" fill-opacity="1"><g transform="translate(35.987382, 262.920975)"><g><path d="M 5.453125 -0.65625 L 5.453125 0 L 0.40625 0 L 0.40625 -0.53125 L 3.390625 -3.453125 C 3.773438 -3.828125 4.03125 -4.148438 4.15625 -4.421875 C 4.289062 -4.691406 4.359375 -4.960938 4.359375 -5.234375 C 4.359375 -5.660156 4.210938 -5.992188 3.921875 -6.234375 C 3.628906 -6.472656 3.210938 -6.59375 2.671875 -6.59375 C 1.828125 -6.59375 1.171875 -6.320312 0.703125 -5.78125 L 0.1875 -6.234375 C 0.46875 -6.566406 0.828125 -6.820312 1.265625 -7 C 1.703125 -7.175781 2.191406 -7.265625 2.734375 -7.265625 C 3.472656 -7.265625 4.054688 -7.09375 4.484375 -6.75 C 4.910156 -6.40625 5.125 -5.929688 5.125 -5.328125 C 5.125 -4.953125 5.039062 -4.59375 4.875 -4.25 C 4.71875 -3.90625 4.40625 -3.507812 3.9375 -3.0625 L 1.5 -0.65625 Z M 5.453125 -0.65625 "/></g></g></g><g fill="#121212" fill-opacity="1"><g transform="translate(41.831599, 262.920975)"><g><path d="M 2.984375 -4.125 C 3.742188 -4.082031 4.316406 -3.875 4.703125 -3.5 C 5.097656 -3.132812 5.296875 -2.65625 5.296875 -2.0625 C 5.296875 -1.65625 5.195312 -1.289062 5 -0.96875 C 4.800781 -0.65625 4.503906 -0.40625 4.109375 -0.21875 C 3.722656 -0.03125 3.25 0.0625 2.6875 0.0625 C 2.164062 0.0625 1.671875 -0.0195312 1.203125 -0.1875 C 0.742188 -0.351562 0.375 -0.578125 0.09375 -0.859375 L 0.453125 -1.453125 C 0.691406 -1.203125 1.007812 -1 1.40625 -0.84375 C 1.8125 -0.695312 2.238281 -0.625 2.6875 -0.625 C 3.28125 -0.625 3.738281 -0.75 4.0625 -1 C 4.382812 -1.257812 4.546875 -1.613281 4.546875 -2.0625 C 4.546875 -2.507812 4.382812 -2.859375 4.0625 -3.109375 C 3.738281 -3.367188 3.25 -3.5 2.59375 -3.5 L 2.078125 -3.5 L 2.078125 -4.046875 L 4.078125 -6.546875 L 0.390625 -6.546875 L 0.390625 -7.203125 L 5.03125 -7.203125 L 5.03125 -6.6875 Z M 2.984375 -4.125 "/></g></g></g><g fill="#121212" fill-opacity="1"><g transform="translate(47.634662, 262.920975)"><g><path d="M 6.65625 -1.890625 L 5.21875 -1.890625 L 5.21875 0 L 4.484375 0 L 4.484375 -1.890625 L 0.40625 -1.890625 L 0.40625 -2.4375 L 4.234375 -7.203125 L 5.0625 -7.203125 L 1.375 -2.546875 L 4.5 -2.546875 L 4.5 -4.21875 L 5.21875 -4.21875 L 5.21875 -2.546875 L 6.65625 -2.546875 Z M 6.65625 -1.890625 "/></g></g></g><g fill="#121212" fill-opacity="1"><g transform="translate(54.435767, 262.920975)"><g><path d="M 2.4375 -4.25 C 3.476562 -4.25 4.234375 -4.0625 4.703125 -3.6875 C 5.179688 -3.3125 5.421875 -2.789062 5.421875 -2.125 C 5.421875 -1.707031 5.320312 -1.332031 5.125 -1 C 4.9375 -0.664062 4.644531 -0.40625 4.25 -0.21875 C 3.863281 -0.03125 3.382812 0.0625 2.8125 0.0625 C 2.289062 0.0625 1.800781 -0.0195312 1.34375 -0.1875 C 0.882812 -0.351562 0.507812 -0.578125 0.21875 -0.859375 L 0.59375 -1.453125 C 0.832031 -1.203125 1.144531 -1 1.53125 -0.84375 C 1.925781 -0.695312 2.347656 -0.625 2.796875 -0.625 C 3.398438 -0.625 3.863281 -0.753906 4.1875 -1.015625 C 4.507812 -1.285156 4.671875 -1.644531 4.671875 -2.09375 C 4.671875 -2.582031 4.488281 -2.953125 4.125 -3.203125 C 3.757812 -3.460938 3.140625 -3.59375 2.265625 -3.59375 L 0.734375 -3.59375 L 1.109375 -7.203125 L 5.046875 -7.203125 L 5.046875 -6.546875 L 1.75 -6.546875 L 1.5 -4.25 Z M 2.4375 -4.25 "/></g></g></g><g fill="#ffffff" fill-opacity="1"><g transform="translate(188.195533, 256.544846)"><g><path d="M 5.734375 0.140625 C 4.765625 0.140625 3.890625 -0.0703125 3.109375 -0.5 C 2.328125 -0.925781 1.710938 -1.515625 1.265625 -2.265625 C 0.828125 -3.015625 0.609375 -3.859375 0.609375 -4.796875 C 0.609375 -5.742188 0.832031 -6.59375 1.28125 -7.34375 C 1.726562 -8.09375 2.34375 -8.675781 3.125 -9.09375 C 3.90625 -9.519531 4.78125 -9.734375 5.75 -9.734375 C 6.53125 -9.734375 7.242188 -9.597656 7.890625 -9.328125 C 8.546875 -9.054688 9.097656 -8.660156 9.546875 -8.140625 L 8.390625 -7.046875 C 7.703125 -7.796875 6.847656 -8.171875 5.828125 -8.171875 C 5.171875 -8.171875 4.582031 -8.023438 4.0625 -7.734375 C 3.539062 -7.453125 3.132812 -7.054688 2.84375 -6.546875 C 2.550781 -6.035156 2.40625 -5.453125 2.40625 -4.796875 C 2.40625 -4.148438 2.550781 -3.570312 2.84375 -3.0625 C 3.132812 -2.550781 3.539062 -2.148438 4.0625 -1.859375 C 4.582031 -1.566406 5.171875 -1.421875 5.828125 -1.421875 C 6.847656 -1.421875 7.703125 -1.800781 8.390625 -2.5625 L 9.546875 -1.46875 C 9.097656 -0.945312 8.546875 -0.546875 7.890625 -0.265625 C 7.242188 0.00390625 6.523438 0.140625 5.734375 0.140625 Z M 5.734375 0.140625 "/></g></g></g><g fill="#ffffff" fill-opacity="1"><g transform="translate(198.164262, 256.544846)"><g><path d="M 4.421875 0.09375 C 3.679688 0.09375 3.007812 -0.0625 2.40625 -0.375 C 1.8125 -0.695312 1.347656 -1.144531 1.015625 -1.71875 C 0.679688 -2.289062 0.515625 -2.9375 0.515625 -3.65625 C 0.515625 -4.382812 0.679688 -5.03125 1.015625 -5.59375 C 1.347656 -6.164062 1.8125 -6.609375 2.40625 -6.921875 C 3.007812 -7.242188 3.679688 -7.40625 4.421875 -7.40625 C 5.171875 -7.40625 5.84375 -7.242188 6.4375 -6.921875 C 7.03125 -6.609375 7.492188 -6.164062 7.828125 -5.59375 C 8.160156 -5.03125 8.328125 -4.382812 8.328125 -3.65625 C 8.328125 -2.9375 8.160156 -2.289062 7.828125 -1.71875 C 7.492188 -1.144531 7.03125 -0.695312 6.4375 -0.375 C 5.84375 -0.0625 5.171875 0.09375 4.421875 0.09375 Z M 4.421875 -1.375 C 5.046875 -1.375 5.5625 -1.582031 5.96875 -2 C 6.382812 -2.425781 6.59375 -2.976562 6.59375 -3.65625 C 6.59375 -4.34375 6.382812 -4.894531 5.96875 -5.3125 C 5.5625 -5.738281 5.046875 -5.953125 4.421875 -5.953125 C 3.785156 -5.953125 3.265625 -5.738281 2.859375 -5.3125 C 2.453125 -4.894531 2.25 -4.34375 2.25 -3.65625 C 2.25 -2.976562 2.453125 -2.425781 2.859375 -2 C 3.265625 -1.582031 3.785156 -1.375 4.421875 -1.375 Z M 4.421875 -1.375 "/></g></g></g><g fill="#ffffff" fill-opacity="1"><g transform="translate(207.008596, 256.544846)"><g><path d="M 5.28125 -7.40625 C 6.207031 -7.40625 6.945312 -7.132812 7.5 -6.59375 C 8.0625 -6.0625 8.34375 -5.265625 8.34375 -4.203125 L 8.34375 0 L 6.625 0 L 6.625 -3.984375 C 6.625 -4.617188 6.472656 -5.097656 6.171875 -5.421875 C 5.867188 -5.742188 5.441406 -5.90625 4.890625 -5.90625 C 4.253906 -5.90625 3.753906 -5.71875 3.390625 -5.34375 C 3.023438 -4.96875 2.84375 -4.421875 2.84375 -3.703125 L 2.84375 0 L 1.125 0 L 1.125 -7.328125 L 2.75 -7.328125 L 2.75 -6.375 C 3.039062 -6.71875 3.398438 -6.972656 3.828125 -7.140625 C 4.253906 -7.316406 4.738281 -7.40625 5.28125 -7.40625 Z M 5.28125 -7.40625 "/></g></g></g><g fill="#ffffff" fill-opacity="1"><g transform="translate(216.401417, 256.544846)"><g><path d="M 5.53125 -0.390625 C 5.332031 -0.234375 5.085938 -0.113281 4.796875 -0.03125 C 4.503906 0.0507812 4.195312 0.09375 3.875 0.09375 C 3.070312 0.09375 2.453125 -0.113281 2.015625 -0.53125 C 1.578125 -0.957031 1.359375 -1.570312 1.359375 -2.375 L 1.359375 -5.90625 L 0.15625 -5.90625 L 0.15625 -7.265625 L 1.359375 -7.265625 L 1.359375 -8.9375 L 3.078125 -8.9375 L 3.078125 -7.265625 L 5.03125 -7.265625 L 5.03125 -5.90625 L 3.078125 -5.90625 L 3.078125 -2.421875 C 3.078125 -2.054688 3.160156 -1.78125 3.328125 -1.59375 C 3.503906 -1.40625 3.757812 -1.3125 4.09375 -1.3125 C 4.476562 -1.3125 4.796875 -1.414062 5.046875 -1.625 Z M 5.53125 -0.390625 "/></g></g></g><g fill="#ffffff" fill-opacity="1"><g transform="translate(222.215365, 256.544846)"><g><path d="M 3.921875 -7.40625 C 5.003906 -7.40625 5.828125 -7.144531 6.390625 -6.625 C 6.960938 -6.113281 7.25 -5.335938 7.25 -4.296875 L 7.25 0 L 5.640625 0 L 5.640625 -0.890625 C 5.429688 -0.566406 5.128906 -0.320312 4.734375 -0.15625 C 4.347656 0.0078125 3.878906 0.09375 3.328125 0.09375 C 2.785156 0.09375 2.304688 0 1.890625 -0.1875 C 1.484375 -0.375 1.164062 -0.632812 0.9375 -0.96875 C 0.71875 -1.300781 0.609375 -1.675781 0.609375 -2.09375 C 0.609375 -2.757812 0.851562 -3.289062 1.34375 -3.6875 C 1.832031 -4.082031 2.601562 -4.28125 3.65625 -4.28125 L 5.546875 -4.28125 L 5.546875 -4.390625 C 5.546875 -4.898438 5.390625 -5.289062 5.078125 -5.5625 C 4.773438 -5.84375 4.320312 -5.984375 3.71875 -5.984375 C 3.300781 -5.984375 2.894531 -5.914062 2.5 -5.78125 C 2.101562 -5.65625 1.769531 -5.476562 1.5 -5.25 L 0.828125 -6.5 C 1.210938 -6.789062 1.671875 -7.015625 2.203125 -7.171875 C 2.742188 -7.328125 3.316406 -7.40625 3.921875 -7.40625 Z M 3.6875 -1.15625 C 4.113281 -1.15625 4.492188 -1.253906 4.828125 -1.453125 C 5.171875 -1.648438 5.410156 -1.929688 5.546875 -2.296875 L 5.546875 -3.140625 L 3.765625 -3.140625 C 2.785156 -3.140625 2.296875 -2.816406 2.296875 -2.171875 C 2.296875 -1.859375 2.414062 -1.609375 2.65625 -1.421875 C 2.90625 -1.242188 3.25 -1.15625 3.6875 -1.15625 Z M 3.6875 -1.15625 "/></g></g></g><g fill="#ffffff" fill-opacity="1"><g transform="translate(230.538637, 256.544846)"><g><path d="M 4.484375 0.09375 C 3.722656 0.09375 3.039062 -0.0625 2.4375 -0.375 C 1.832031 -0.695312 1.359375 -1.144531 1.015625 -1.71875 C 0.679688 -2.289062 0.515625 -2.9375 0.515625 -3.65625 C 0.515625 -4.382812 0.679688 -5.03125 1.015625 -5.59375 C 1.359375 -6.164062 1.828125 -6.609375 2.421875 -6.921875 C 3.023438 -7.242188 3.710938 -7.40625 4.484375 -7.40625 C 5.203125 -7.40625 5.832031 -7.257812 6.375 -6.96875 C 6.925781 -6.675781 7.335938 -6.253906 7.609375 -5.703125 L 6.296875 -4.9375 C 6.085938 -5.28125 5.820312 -5.535156 5.5 -5.703125 C 5.1875 -5.867188 4.84375 -5.953125 4.46875 -5.953125 C 3.832031 -5.953125 3.300781 -5.742188 2.875 -5.328125 C 2.457031 -4.910156 2.25 -4.351562 2.25 -3.65625 C 2.25 -2.96875 2.457031 -2.414062 2.875 -2 C 3.289062 -1.582031 3.820312 -1.375 4.46875 -1.375 C 4.84375 -1.375 5.1875 -1.457031 5.5 -1.625 C 5.820312 -1.789062 6.085938 -2.046875 6.296875 -2.390625 L 7.609375 -1.625 C 7.328125 -1.070312 6.914062 -0.644531 6.375 -0.34375 C 5.832031 -0.0507812 5.203125 0.09375 4.484375 0.09375 Z M 4.484375 0.09375 "/></g></g></g><g fill="#ffffff" fill-opacity="1"><g transform="translate(238.505394, 256.544846)"><g><path d="M 5.53125 -0.390625 C 5.332031 -0.234375 5.085938 -0.113281 4.796875 -0.03125 C 4.503906 0.0507812 4.195312 0.09375 3.875 0.09375 C 3.070312 0.09375 2.453125 -0.113281 2.015625 -0.53125 C 1.578125 -0.957031 1.359375 -1.570312 1.359375 -2.375 L 1.359375 -5.90625 L 0.15625 -5.90625 L 0.15625 -7.265625 L 1.359375 -7.265625 L 1.359375 -8.9375 L 3.078125 -8.9375 L 3.078125 -7.265625 L 5.03125 -7.265625 L 5.03125 -5.90625 L 3.078125 -5.90625 L 3.078125 -2.421875 C 3.078125 -2.054688 3.160156 -1.78125 3.328125 -1.59375 C 3.503906 -1.40625 3.757812 -1.3125 4.09375 -1.3125 C 4.476562 -1.3125 4.796875 -1.414062 5.046875 -1.625 Z M 5.53125 -0.390625 "/></g></g></g><g fill="#ffffff" fill-opacity="1"><g transform="translate(244.319343, 256.544846)"><g/></g></g><g fill="#ffffff" fill-opacity="1"><g transform="translate(248.103898, 256.544846)"><g><path d="M 5.421875 0.140625 C 4.097656 0.140625 3.0625 -0.226562 2.3125 -0.96875 C 1.570312 -1.71875 1.203125 -2.789062 1.203125 -4.1875 L 1.203125 -9.609375 L 2.984375 -9.609375 L 2.984375 -4.25 C 2.984375 -2.363281 3.800781 -1.421875 5.4375 -1.421875 C 7.050781 -1.421875 7.859375 -2.363281 7.859375 -4.25 L 7.859375 -9.609375 L 9.609375 -9.609375 L 9.609375 -4.1875 C 9.609375 -2.789062 9.238281 -1.71875 8.5 -0.96875 C 7.769531 -0.226562 6.742188 0.140625 5.421875 0.140625 Z M 5.421875 0.140625 "/></g></g></g><g fill="#ffffff" fill-opacity="1"><g transform="translate(258.922781, 256.544846)"><g><path d="M 3.390625 0.09375 C 2.796875 0.09375 2.210938 0.015625 1.640625 -0.140625 C 1.078125 -0.296875 0.625 -0.492188 0.28125 -0.734375 L 0.953125 -2.03125 C 1.273438 -1.8125 1.664062 -1.632812 2.125 -1.5 C 2.59375 -1.363281 3.050781 -1.296875 3.5 -1.296875 C 4.519531 -1.296875 5.03125 -1.566406 5.03125 -2.109375 C 5.03125 -2.367188 4.898438 -2.546875 4.640625 -2.640625 C 4.378906 -2.742188 3.960938 -2.84375 3.390625 -2.9375 C 2.785156 -3.03125 2.289062 -3.132812 1.90625 -3.25 C 1.53125 -3.375 1.203125 -3.582031 0.921875 -3.875 C 0.640625 -4.175781 0.5 -4.585938 0.5 -5.109375 C 0.5 -5.804688 0.789062 -6.363281 1.375 -6.78125 C 1.957031 -7.195312 2.742188 -7.40625 3.734375 -7.40625 C 4.234375 -7.40625 4.734375 -7.347656 5.234375 -7.234375 C 5.742188 -7.117188 6.15625 -6.96875 6.46875 -6.78125 L 5.8125 -5.46875 C 5.195312 -5.832031 4.5 -6.015625 3.71875 -6.015625 C 3.21875 -6.015625 2.835938 -5.9375 2.578125 -5.78125 C 2.316406 -5.632812 2.1875 -5.441406 2.1875 -5.203125 C 2.1875 -4.921875 2.320312 -4.722656 2.59375 -4.609375 C 2.875 -4.492188 3.304688 -4.390625 3.890625 -4.296875 C 4.484375 -4.203125 4.96875 -4.09375 5.34375 -3.96875 C 5.71875 -3.851562 6.035156 -3.65625 6.296875 -3.375 C 6.566406 -3.09375 6.703125 -2.691406 6.703125 -2.171875 C 6.703125 -1.484375 6.40625 -0.929688 5.8125 -0.515625 C 5.21875 -0.109375 4.410156 0.09375 3.390625 0.09375 Z M 3.390625 0.09375 "/></g></g></g></svg>