<?xml version="1.0" encoding="UTF-8"?> <svg xmlns="http://www.w3.org/2000/svg" width="30.101" height="30.102" viewBox="0 0 30.101 30.102"><path id="fb" d="M340.039,1640.954a15.051,15.051,0,1,0,15.05,15.051A15.052,15.052,0,0,0,340.039,1640.954Zm4.412,8.58a.241.241,0,0,1-.241.241H342.3a.849.849,0,0,0-.85.849v2h2.72a.241.241,0,0,1,.24.26l-.239,2.823a.241.241,0,0,1-.239.22h-2.482v9.368a.24.24,0,0,1-.24.24h-3.423a.239.239,0,0,1-.24-.24v-9.368h-1.712a.24.24,0,0,1-.24-.24v-2.823a.24.24,0,0,1,.24-.24h1.712v-2.721a3.433,3.433,0,0,1,3.434-3.434h3.231a.24.24,0,0,1,.241.24Z" transform="translate(-324.988 -1640.954)" fill="#c7c9c7"></path></svg> 