<?xml version="1.0" encoding="UTF-8"?> <svg xmlns="http://www.w3.org/2000/svg" width="29.83" height="29.83" viewBox="0 0 29.83 29.83"><path id="in" d="M278.515,1682.215A14.915,14.915,0,0,0,263.6,1697.13h0a14.915,14.915,0,1,0,29.83,0h0A14.915,14.915,0,0,0,278.515,1682.215Zm-3.676,21.563h-3.087v-9.972h3.087Zm-1.558-11.278a1.841,1.841,0,1,1,1.825-1.841A1.834,1.834,0,0,1,273.281,1692.5Zm13.126,11.278h-3.073v-5.235c0-1.436-.545-2.237-1.68-2.237-1.236,0-1.881.835-1.881,2.237v5.235h-2.961v-9.972h2.961v1.343a3.477,3.477,0,0,1,3.005-1.648c2.115,0,3.629,1.292,3.629,3.963Z" transform="translate(-263.6 -1682.215)" fill="#c7c9c7"></path></svg> 