<?xml version="1.0" encoding="UTF-8"?> <svg xmlns="http://www.w3.org/2000/svg" width="30.102" height="30.101" viewBox="0 0 30.102 30.101"><g id="insta" transform="translate(-386.976 -1640.855)"><path id="Trazado_83" data-name="Trazado 83" d="M406.008,1647.81h-7.962a4.119,4.119,0,0,0-4.115,4.114v7.963a4.119,4.119,0,0,0,4.115,4.114h7.962a4.119,4.119,0,0,0,4.115-4.114v-7.963A4.119,4.119,0,0,0,406.008,1647.81Zm-3.9,13.007a4.911,4.911,0,1,1,4.911-4.911A4.917,4.917,0,0,1,402.109,1660.817Zm5.2-8.984a1.169,1.169,0,1,1,1.169-1.169A1.169,1.169,0,0,1,407.307,1651.833Z" fill="#c7c9c7"></path><path id="Trazado_84" data-name="Trazado 84" d="M402.109,1652.76a3.146,3.146,0,1,0,3.146,3.146A3.149,3.149,0,0,0,402.109,1652.76Z" fill="#c7c9c7"></path><path id="Trazado_85" data-name="Trazado 85" d="M402.027,1640.855a15.051,15.051,0,1,0,15.05,15.051A15.052,15.052,0,0,0,402.027,1640.855ZM412,1659.887a6,6,0,0,1-5.991,5.991h-7.962a6,6,0,0,1-5.991-5.991v-7.963a6,6,0,0,1,5.991-5.99h7.962a6,6,0,0,1,5.991,5.99Z" fill="#c7c9c7"></path></g></svg> 