<svg xmlns="http://www.w3.org/2000/svg" xmlns:xlink="http://www.w3.org/1999/xlink" width="200" zoomAndPan="magnify" viewBox="0 0 150 149.999998" height="200" preserveAspectRatio="xMidYMid meet" version="1.0"><defs><clipPath id="id1"><path d="M 7.871094 21 L 76 21 L 76 30 L 7.871094 30 Z M 7.871094 21 " clip-rule="nonzero"/></clipPath><clipPath id="id2"><path d="M 7.871094 7.378906 L 76 7.378906 L 76 17 L 7.871094 17 Z M 7.871094 7.378906 " clip-rule="nonzero"/></clipPath><clipPath id="id3"><path d="M 75 21 L 142.121094 21 L 142.121094 30 L 75 30 Z M 75 21 " clip-rule="nonzero"/></clipPath><clipPath id="id4"><path d="M 75 7.378906 L 142.121094 7.378906 L 142.121094 17 L 75 17 Z M 75 7.378906 " clip-rule="nonzero"/></clipPath><clipPath id="id5"><path d="M 36 130 L 76 130 L 76 142.378906 L 36 142.378906 Z M 36 130 " clip-rule="nonzero"/></clipPath><clipPath id="id6"><path d="M 75 130 L 114 130 L 114 142.378906 L 75 142.378906 Z M 75 130 " clip-rule="nonzero"/></clipPath></defs><rect x="-15" width="180" fill="#ffffff" y="-15" height="179.999997" fill-opacity="1"/><rect x="-15" width="180" fill="#ffffff" y="-15" height="179.999997" fill-opacity="1"/><rect x="-15" width="180" fill="#922323" y="-15" height="179.999997" fill-opacity="1"/><g clip-path="url(#id1)"><path fill="#683e21" d="M 75.019531 29.972656 L 10.28125 29.972656 C 8.960938 29.972656 7.890625 28.902344 7.890625 27.585938 L 7.890625 23.265625 C 7.890625 22.15625 8.792969 21.253906 9.90625 21.253906 L 75.019531 21.253906 Z M 75.019531 29.972656 " fill-opacity="1" fill-rule="nonzero"/></g><g clip-path="url(#id2)"><path fill="#683e21" d="M 75.019531 16.148438 L 10.28125 16.148438 C 8.960938 16.148438 7.890625 15.078125 7.890625 13.757812 L 7.890625 9.441406 C 7.890625 8.328125 8.792969 7.425781 9.90625 7.425781 L 75.019531 7.425781 Z M 75.019531 16.148438 " fill-opacity="1" fill-rule="nonzero"/></g><g clip-path="url(#id3)"><path fill="#4d2c12" d="M 75.019531 29.972656 L 139.757812 29.972656 C 141.078125 29.972656 142.148438 28.902344 142.148438 27.585938 L 142.148438 23.265625 C 142.148438 22.15625 141.246094 21.253906 140.132812 21.253906 L 75.019531 21.253906 Z M 75.019531 29.972656 " fill-opacity="1" fill-rule="nonzero"/></g><g clip-path="url(#id4)"><path fill="#4d2c12" d="M 75.019531 16.148438 L 139.757812 16.148438 C 141.078125 16.148438 142.148438 15.078125 142.148438 13.757812 L 142.148438 9.441406 C 142.148438 8.328125 141.246094 7.425781 140.132812 7.425781 L 75.019531 7.425781 Z M 75.019531 16.148438 " fill-opacity="1" fill-rule="nonzero"/></g><path fill="#ef7a36" d="M 13.410156 15.773438 L 55.960938 15.773438 L 55.960938 89.015625 L 13.410156 89.015625 Z M 13.410156 15.773438 " fill-opacity="1" fill-rule="nonzero"/><path fill="#f2b630" d="M 21.644531 15.773438 L 29.695312 15.773438 L 29.695312 89.015625 L 21.644531 89.015625 Z M 21.644531 15.773438 " fill-opacity="1" fill-rule="nonzero"/><path fill="#f2b630" d="M 37.429688 15.773438 L 45.480469 15.773438 L 45.480469 89.015625 L 37.429688 89.015625 Z M 37.429688 15.773438 " fill-opacity="1" fill-rule="nonzero"/><path fill="#ef7a36" d="M 129.203125 94.246094 C 129.203125 95.300781 129.152344 96.347656 129.046875 97.394531 C 128.945312 98.445312 128.789062 99.484375 128.585938 100.515625 C 128.378906 101.546875 128.125 102.566406 127.816406 103.574219 C 127.511719 104.582031 127.15625 105.570312 126.753906 106.542969 C 126.347656 107.515625 125.898438 108.46875 125.402344 109.394531 C 124.90625 110.324219 124.363281 111.226562 123.777344 112.101562 C 123.191406 112.976562 122.566406 113.820312 121.894531 114.632812 C 121.226562 115.445312 120.519531 116.226562 119.773438 116.96875 C 119.027344 117.714844 118.25 118.421875 117.433594 119.089844 C 116.617188 119.753906 115.773438 120.382812 114.894531 120.964844 C 114.019531 121.550781 113.117188 122.09375 112.1875 122.589844 C 111.257812 123.085938 110.304688 123.535156 109.332031 123.9375 C 108.355469 124.339844 107.363281 124.695312 106.355469 125 C 105.347656 125.304688 104.324219 125.558594 103.292969 125.765625 C 102.257812 125.96875 101.214844 126.125 100.167969 126.226562 C 99.117188 126.332031 98.066406 126.382812 97.011719 126.382812 C 95.957031 126.382812 94.90625 126.332031 93.855469 126.226562 C 92.808594 126.125 91.765625 125.96875 90.730469 125.765625 C 89.695312 125.558594 88.675781 125.304688 87.667969 125 C 86.65625 124.695312 85.664062 124.339844 84.691406 123.9375 C 83.71875 123.535156 82.765625 123.085938 81.835938 122.589844 C 80.90625 122.09375 80.003906 121.550781 79.125 120.964844 C 78.25 120.382812 77.402344 119.753906 76.589844 119.089844 C 75.773438 118.421875 74.992188 117.714844 74.25 116.96875 C 73.503906 116.226562 72.796875 115.445312 72.125 114.632812 C 71.457031 113.820312 70.832031 112.976562 70.246094 112.101562 C 69.660156 111.226562 69.117188 110.324219 68.621094 109.394531 C 68.125 108.46875 67.671875 107.515625 67.269531 106.542969 C 66.867188 105.570312 66.511719 104.582031 66.207031 103.574219 C 65.898438 102.566406 65.644531 101.546875 65.4375 100.515625 C 65.230469 99.484375 65.078125 98.445312 64.972656 97.394531 C 64.871094 96.347656 64.820312 95.300781 64.820312 94.246094 C 64.820312 93.195312 64.871094 92.144531 64.972656 91.097656 C 65.078125 90.050781 65.230469 89.007812 65.4375 87.976562 C 65.644531 86.945312 65.898438 85.925781 66.207031 84.917969 C 66.511719 83.910156 66.867188 82.921875 67.269531 81.949219 C 67.671875 80.976562 68.125 80.027344 68.621094 79.097656 C 69.117188 78.167969 69.660156 77.265625 70.246094 76.390625 C 70.832031 75.515625 71.457031 74.671875 72.125 73.859375 C 72.796875 73.046875 73.503906 72.265625 74.25 71.523438 C 74.992188 70.777344 75.773438 70.074219 76.589844 69.40625 C 77.402344 68.738281 78.25 68.109375 79.125 67.527344 C 80.003906 66.941406 80.90625 66.402344 81.835938 65.90625 C 82.765625 65.410156 83.71875 64.960938 84.691406 64.554688 C 85.664062 64.152344 86.65625 63.800781 87.667969 63.492188 C 88.675781 63.1875 89.695312 62.933594 90.730469 62.726562 C 91.765625 62.523438 92.808594 62.367188 93.855469 62.265625 C 94.90625 62.160156 95.957031 62.109375 97.011719 62.109375 C 98.066406 62.109375 99.117188 62.160156 100.167969 62.265625 C 101.214844 62.367188 102.257812 62.523438 103.292969 62.726562 C 104.324219 62.933594 105.347656 63.1875 106.355469 63.492188 C 107.363281 63.800781 108.355469 64.152344 109.332031 64.554688 C 110.304688 64.960938 111.257812 65.410156 112.1875 65.90625 C 113.117188 66.402344 114.019531 66.941406 114.894531 67.527344 C 115.773438 68.109375 116.617188 68.738281 117.433594 69.40625 C 118.25 70.074219 119.027344 70.777344 119.773438 71.523438 C 120.519531 72.265625 121.226562 73.046875 121.894531 73.859375 C 122.566406 74.671875 123.191406 75.515625 123.777344 76.390625 C 124.363281 77.265625 124.90625 78.167969 125.402344 79.097656 C 125.898438 80.027344 126.347656 80.976562 126.753906 81.949219 C 127.15625 82.921875 127.511719 83.910156 127.816406 84.917969 C 128.125 85.925781 128.378906 86.945312 128.585938 87.976562 C 128.789062 89.007812 128.945312 90.050781 129.046875 91.097656 C 129.152344 92.144531 129.203125 93.195312 129.203125 94.246094 Z M 129.203125 94.246094 " fill-opacity="1" fill-rule="nonzero"/><path fill="#f2b630" d="M 121.71875 94.246094 C 121.71875 95.054688 121.675781 95.859375 121.597656 96.664062 C 121.519531 97.46875 121.402344 98.265625 121.242188 99.058594 C 121.085938 99.851562 120.886719 100.632812 120.652344 101.40625 C 120.417969 102.179688 120.144531 102.9375 119.835938 103.683594 C 119.527344 104.429688 119.179688 105.160156 118.800781 105.871094 C 118.417969 106.585938 118.003906 107.277344 117.554688 107.949219 C 117.105469 108.621094 116.621094 109.269531 116.109375 109.890625 C 115.597656 110.515625 115.054688 111.113281 114.480469 111.6875 C 113.910156 112.257812 113.308594 112.800781 112.683594 113.3125 C 112.058594 113.824219 111.410156 114.304688 110.738281 114.753906 C 110.0625 115.203125 109.371094 115.617188 108.65625 115.996094 C 107.945312 116.378906 107.214844 116.722656 106.464844 117.03125 C 105.71875 117.339844 104.957031 117.613281 104.183594 117.847656 C 103.410156 118.082031 102.625 118.277344 101.832031 118.4375 C 101.039062 118.59375 100.238281 118.710938 99.433594 118.789062 C 98.628906 118.871094 97.820312 118.910156 97.011719 118.910156 C 96.203125 118.910156 95.394531 118.871094 94.589844 118.789062 C 93.785156 118.710938 92.984375 118.59375 92.191406 118.4375 C 91.398438 118.277344 90.613281 118.082031 89.839844 117.847656 C 89.066406 117.613281 88.304688 117.339844 87.558594 117.03125 C 86.808594 116.722656 86.078125 116.378906 85.363281 115.996094 C 84.652344 115.617188 83.957031 115.203125 83.285156 114.753906 C 82.613281 114.304688 81.964844 113.824219 81.339844 113.3125 C 80.710938 112.800781 80.113281 112.257812 79.542969 111.6875 C 78.96875 111.113281 78.425781 110.515625 77.914062 109.890625 C 77.398438 109.269531 76.917969 108.621094 76.46875 107.949219 C 76.019531 107.277344 75.605469 106.585938 75.222656 105.871094 C 74.839844 105.160156 74.496094 104.429688 74.1875 103.683594 C 73.875 102.9375 73.605469 102.179688 73.371094 101.40625 C 73.132812 100.632812 72.9375 99.851562 72.78125 99.058594 C 72.621094 98.265625 72.503906 97.46875 72.425781 96.664062 C 72.34375 95.859375 72.304688 95.054688 72.304688 94.246094 C 72.304688 93.4375 72.34375 92.632812 72.425781 91.828125 C 72.503906 91.023438 72.621094 90.226562 72.78125 89.433594 C 72.9375 88.644531 73.132812 87.859375 73.371094 87.085938 C 73.605469 86.3125 73.875 85.554688 74.1875 84.808594 C 74.496094 84.0625 74.839844 83.332031 75.222656 82.621094 C 75.605469 81.90625 76.019531 81.214844 76.46875 80.542969 C 76.917969 79.871094 77.398438 79.226562 77.914062 78.601562 C 78.425781 77.976562 78.96875 77.378906 79.542969 76.808594 C 80.113281 76.234375 80.710938 75.695312 81.339844 75.179688 C 81.964844 74.667969 82.613281 74.1875 83.285156 73.738281 C 83.957031 73.289062 84.652344 72.875 85.363281 72.496094 C 86.078125 72.113281 86.808594 71.769531 87.558594 71.460938 C 88.304688 71.152344 89.066406 70.878906 89.839844 70.644531 C 90.613281 70.410156 91.398438 70.214844 92.191406 70.058594 C 92.984375 69.898438 93.785156 69.78125 94.589844 69.703125 C 95.394531 69.621094 96.203125 69.582031 97.011719 69.582031 C 97.820312 69.582031 98.628906 69.621094 99.433594 69.703125 C 100.238281 69.78125 101.039062 69.898438 101.832031 70.058594 C 102.625 70.214844 103.410156 70.410156 104.183594 70.644531 C 104.957031 70.878906 105.71875 71.152344 106.464844 71.460938 C 107.214844 71.769531 107.945312 72.113281 108.65625 72.496094 C 109.371094 72.875 110.066406 73.289062 110.738281 73.738281 C 111.410156 74.1875 112.058594 74.667969 112.683594 75.179688 C 113.308594 75.695312 113.910156 76.234375 114.480469 76.808594 C 115.054688 77.378906 115.597656 77.976562 116.109375 78.601562 C 116.621094 79.226562 117.105469 79.871094 117.554688 80.542969 C 118.003906 81.214844 118.417969 81.90625 118.800781 82.621094 C 119.179688 83.332031 119.527344 84.0625 119.835938 84.808594 C 120.144531 85.554688 120.417969 86.3125 120.652344 87.085938 C 120.886719 87.859375 121.085938 88.644531 121.242188 89.433594 C 121.402344 90.226562 121.519531 91.023438 121.597656 91.828125 C 121.675781 92.632812 121.71875 93.4375 121.71875 94.246094 Z M 121.71875 94.246094 " fill-opacity="1" fill-rule="nonzero"/><path fill="#ef7a36" d="M 114.730469 94.246094 C 114.730469 94.824219 114.699219 95.402344 114.644531 95.980469 C 114.585938 96.554688 114.503906 97.128906 114.390625 97.695312 C 114.277344 98.265625 114.136719 98.828125 113.964844 99.378906 C 113.796875 99.933594 113.601562 100.480469 113.378906 101.015625 C 113.160156 101.550781 112.910156 102.074219 112.636719 102.585938 C 112.363281 103.09375 112.066406 103.589844 111.742188 104.074219 C 111.421875 104.554688 111.074219 105.019531 110.707031 105.46875 C 110.339844 105.914062 109.949219 106.34375 109.539062 106.753906 C 109.128906 107.164062 108.699219 107.550781 108.25 107.917969 C 107.804688 108.285156 107.335938 108.632812 106.855469 108.953125 C 106.371094 109.273438 105.875 109.574219 105.363281 109.84375 C 104.851562 110.117188 104.328125 110.367188 103.792969 110.585938 C 103.253906 110.808594 102.710938 111.003906 102.15625 111.171875 C 101.597656 111.339844 101.039062 111.480469 100.46875 111.59375 C 99.898438 111.707031 99.324219 111.792969 98.746094 111.847656 C 98.171875 111.90625 97.589844 111.933594 97.011719 111.933594 C 96.429688 111.933594 95.851562 111.90625 95.273438 111.847656 C 94.695312 111.792969 94.125 111.707031 93.554688 111.59375 C 92.984375 111.480469 92.421875 111.339844 91.867188 111.171875 C 91.3125 111.003906 90.765625 110.808594 90.230469 110.585938 C 89.695312 110.367188 89.171875 110.117188 88.660156 109.84375 C 88.148438 109.574219 87.648438 109.273438 87.167969 108.953125 C 86.683594 108.632812 86.21875 108.285156 85.769531 107.917969 C 85.324219 107.550781 84.894531 107.164062 84.484375 106.753906 C 84.074219 106.34375 83.683594 105.914062 83.316406 105.46875 C 82.945312 105.019531 82.601562 104.554688 82.277344 104.074219 C 81.957031 103.589844 81.660156 103.09375 81.386719 102.585938 C 81.113281 102.074219 80.863281 101.550781 80.640625 101.015625 C 80.417969 100.480469 80.222656 99.933594 80.054688 99.382812 C 79.886719 98.828125 79.746094 98.265625 79.632812 97.695312 C 79.519531 97.128906 79.433594 96.554688 79.378906 95.980469 C 79.320312 95.402344 79.292969 94.824219 79.292969 94.246094 C 79.292969 93.667969 79.320312 93.089844 79.378906 92.511719 C 79.433594 91.9375 79.519531 91.363281 79.632812 90.796875 C 79.746094 90.226562 79.886719 89.667969 80.054688 89.113281 C 80.222656 88.558594 80.417969 88.011719 80.640625 87.476562 C 80.863281 86.941406 81.113281 86.417969 81.386719 85.910156 C 81.660156 85.398438 81.957031 84.902344 82.277344 84.417969 C 82.601562 83.9375 82.945312 83.472656 83.316406 83.027344 C 83.683594 82.578125 84.074219 82.148438 84.484375 81.738281 C 84.894531 81.328125 85.324219 80.941406 85.769531 80.574219 C 86.21875 80.207031 86.683594 79.863281 87.167969 79.539062 C 87.648438 79.21875 88.148438 78.921875 88.660156 78.648438 C 89.171875 78.375 89.695312 78.125 90.230469 77.90625 C 90.765625 77.683594 91.3125 77.488281 91.867188 77.320312 C 92.421875 77.152344 92.984375 77.011719 93.554688 76.898438 C 94.125 76.785156 94.695312 76.699219 95.273438 76.644531 C 95.851562 76.585938 96.429688 76.558594 97.011719 76.558594 C 97.589844 76.558594 98.171875 76.585938 98.746094 76.644531 C 99.324219 76.699219 99.898438 76.785156 100.46875 76.898438 C 101.039062 77.011719 101.597656 77.152344 102.15625 77.320312 C 102.710938 77.488281 103.253906 77.683594 103.792969 77.90625 C 104.328125 78.125 104.851562 78.375 105.363281 78.648438 C 105.875 78.921875 106.371094 79.21875 106.855469 79.539062 C 107.335938 79.863281 107.804688 80.207031 108.25 80.574219 C 108.699219 80.941406 109.128906 81.328125 109.539062 81.738281 C 109.949219 82.148438 110.339844 82.578125 110.707031 83.027344 C 111.074219 83.472656 111.421875 83.9375 111.742188 84.417969 C 112.066406 84.902344 112.363281 85.398438 112.636719 85.910156 C 112.910156 86.417969 113.160156 86.941406 113.378906 87.476562 C 113.601562 88.011719 113.796875 88.558594 113.964844 89.113281 C 114.136719 89.667969 114.277344 90.226562 114.390625 90.796875 C 114.503906 91.363281 114.585938 91.9375 114.644531 92.511719 C 114.699219 93.089844 114.730469 93.667969 114.730469 94.246094 Z M 114.730469 94.246094 " fill-opacity="1" fill-rule="nonzero"/><path fill="#f2b630" d="M 107.992188 94.246094 C 107.992188 94.964844 107.921875 95.679688 107.78125 96.386719 C 107.640625 97.089844 107.433594 97.777344 107.15625 98.441406 C 106.878906 99.105469 106.542969 99.738281 106.140625 100.335938 C 105.742188 100.933594 105.285156 101.488281 104.777344 101.996094 C 104.265625 102.507812 103.710938 102.960938 103.113281 103.359375 C 102.511719 103.761719 101.878906 104.097656 101.214844 104.375 C 100.546875 104.648438 99.859375 104.855469 99.152344 104.996094 C 98.445312 105.136719 97.730469 105.207031 97.011719 105.207031 C 96.289062 105.207031 95.578125 105.136719 94.867188 104.996094 C 94.160156 104.855469 93.476562 104.648438 92.808594 104.375 C 92.144531 104.097656 91.511719 103.761719 90.910156 103.359375 C 90.3125 102.960938 89.757812 102.507812 89.246094 101.996094 C 88.738281 101.488281 88.28125 100.933594 87.882812 100.335938 C 87.480469 99.738281 87.140625 99.105469 86.867188 98.441406 C 86.589844 97.777344 86.382812 97.089844 86.242188 96.386719 C 86.101562 95.679688 86.03125 94.964844 86.03125 94.246094 C 86.03125 93.527344 86.101562 92.8125 86.242188 92.109375 C 86.382812 91.402344 86.589844 90.714844 86.867188 90.050781 C 87.140625 89.386719 87.480469 88.753906 87.882812 88.15625 C 88.28125 87.558594 88.738281 87.003906 89.246094 86.496094 C 89.757812 85.988281 90.3125 85.53125 90.910156 85.132812 C 91.511719 84.730469 92.144531 84.394531 92.808594 84.121094 C 93.476562 83.84375 94.160156 83.636719 94.867188 83.496094 C 95.578125 83.355469 96.289062 83.285156 97.011719 83.285156 C 97.730469 83.285156 98.445312 83.355469 99.152344 83.496094 C 99.859375 83.636719 100.546875 83.84375 101.214844 84.121094 C 101.878906 84.394531 102.511719 84.730469 103.113281 85.132812 C 103.710938 85.53125 104.265625 85.988281 104.777344 86.496094 C 105.285156 87.003906 105.742188 87.558594 106.140625 88.15625 C 106.542969 88.753906 106.878906 89.386719 107.15625 90.050781 C 107.433594 90.714844 107.640625 91.402344 107.78125 92.109375 C 107.921875 92.8125 107.992188 93.527344 107.992188 94.246094 Z M 107.992188 94.246094 " fill-opacity="1" fill-rule="nonzero"/><path fill="#f3d32e" d="M 86.03125 94.246094 C 86.03125 95.300781 85.980469 96.347656 85.875 97.394531 C 85.773438 98.445312 85.617188 99.484375 85.414062 100.515625 C 85.207031 101.546875 84.949219 102.566406 84.644531 103.574219 C 84.339844 104.582031 83.984375 105.570312 83.582031 106.542969 C 83.175781 107.515625 82.726562 108.46875 82.230469 109.394531 C 81.734375 110.324219 81.191406 111.226562 80.605469 112.101562 C 80.019531 112.976562 79.390625 113.820312 78.722656 114.632812 C 78.054688 115.445312 77.347656 116.226562 76.601562 116.96875 C 75.855469 117.714844 75.074219 118.421875 74.261719 119.089844 C 73.445312 119.753906 72.601562 120.382812 71.722656 120.964844 C 70.847656 121.550781 69.945312 122.09375 69.015625 122.589844 C 68.085938 123.085938 67.132812 123.535156 66.15625 123.9375 C 65.183594 124.339844 64.191406 124.695312 63.183594 125 C 62.175781 125.304688 61.152344 125.558594 60.117188 125.765625 C 59.085938 125.96875 58.042969 126.125 56.992188 126.226562 C 55.945312 126.332031 54.894531 126.382812 53.839844 126.382812 C 52.785156 126.382812 51.734375 126.332031 50.683594 126.226562 C 49.632812 126.125 48.59375 125.96875 47.558594 125.765625 C 46.523438 125.558594 45.503906 125.304688 44.492188 125 C 43.484375 124.695312 42.492188 124.339844 41.519531 123.9375 C 40.546875 123.535156 39.59375 123.085938 38.664062 122.589844 C 37.734375 122.09375 36.832031 121.550781 35.953125 120.964844 C 35.078125 120.382812 34.230469 119.753906 33.417969 119.089844 C 32.601562 118.421875 31.820312 117.714844 31.074219 116.96875 C 30.328125 116.226562 29.621094 115.445312 28.953125 114.632812 C 28.285156 113.820312 27.65625 112.976562 27.070312 112.101562 C 26.484375 111.226562 25.945312 110.324219 25.449219 109.394531 C 24.949219 108.46875 24.5 107.515625 24.097656 106.542969 C 23.695312 105.570312 23.339844 104.582031 23.03125 103.574219 C 22.726562 102.566406 22.472656 101.546875 22.265625 100.515625 C 22.058594 99.484375 21.90625 98.445312 21.800781 97.394531 C 21.699219 96.347656 21.648438 95.300781 21.648438 94.246094 C 21.648438 93.195312 21.699219 92.144531 21.800781 91.097656 C 21.90625 90.050781 22.058594 89.007812 22.265625 87.976562 C 22.472656 86.945312 22.726562 85.925781 23.03125 84.917969 C 23.339844 83.910156 23.695312 82.921875 24.097656 81.949219 C 24.5 80.976562 24.949219 80.027344 25.449219 79.097656 C 25.945312 78.167969 26.484375 77.265625 27.070312 76.390625 C 27.65625 75.515625 28.285156 74.671875 28.953125 73.859375 C 29.621094 73.046875 30.328125 72.265625 31.074219 71.523438 C 31.820312 70.777344 32.601562 70.074219 33.417969 69.40625 C 34.230469 68.738281 35.078125 68.109375 35.953125 67.527344 C 36.832031 66.941406 37.734375 66.402344 38.664062 65.90625 C 39.59375 65.410156 40.546875 64.960938 41.519531 64.554688 C 42.492188 64.152344 43.484375 63.800781 44.492188 63.492188 C 45.503906 63.1875 46.523438 62.933594 47.558594 62.726562 C 48.59375 62.523438 49.632812 62.367188 50.683594 62.265625 C 51.734375 62.160156 52.785156 62.109375 53.839844 62.109375 C 54.894531 62.109375 55.945312 62.160156 56.992188 62.265625 C 58.042969 62.367188 59.085938 62.523438 60.117188 62.726562 C 61.152344 62.933594 62.175781 63.1875 63.183594 63.492188 C 64.191406 63.800781 65.183594 64.152344 66.15625 64.554688 C 67.132812 64.960938 68.085938 65.410156 69.015625 65.90625 C 69.945312 66.402344 70.847656 66.941406 71.722656 67.527344 C 72.601562 68.109375 73.445312 68.738281 74.261719 69.40625 C 75.074219 70.074219 75.855469 70.777344 76.601562 71.523438 C 77.347656 72.265625 78.054688 73.046875 78.722656 73.859375 C 79.390625 74.671875 80.019531 75.515625 80.605469 76.390625 C 81.191406 77.265625 81.734375 78.167969 82.230469 79.097656 C 82.726562 80.027344 83.175781 80.976562 83.582031 81.949219 C 83.984375 82.921875 84.339844 83.910156 84.644531 84.917969 C 84.949219 85.925781 85.207031 86.945312 85.414062 87.976562 C 85.617188 89.007812 85.773438 90.050781 85.875 91.097656 C 85.980469 92.144531 86.03125 93.195312 86.03125 94.246094 Z M 86.03125 94.246094 " fill-opacity="1" fill-rule="nonzero"/><path fill="#f2b630" d="M 78.542969 94.246094 C 78.542969 95.054688 78.503906 95.859375 78.425781 96.664062 C 78.347656 97.46875 78.226562 98.265625 78.070312 99.058594 C 77.914062 99.851562 77.714844 100.632812 77.480469 101.40625 C 77.246094 102.179688 76.972656 102.9375 76.664062 103.683594 C 76.355469 104.429688 76.007812 105.160156 75.628906 105.871094 C 75.246094 106.585938 74.832031 107.277344 74.382812 107.949219 C 73.929688 108.621094 73.449219 109.269531 72.9375 109.890625 C 72.421875 110.515625 71.878906 111.113281 71.308594 111.6875 C 70.734375 112.257812 70.136719 112.800781 69.511719 113.3125 C 68.886719 113.824219 68.238281 114.304688 67.566406 114.753906 C 66.890625 115.203125 66.199219 115.617188 65.484375 115.996094 C 64.769531 116.378906 64.039062 116.722656 63.292969 117.03125 C 62.546875 117.339844 61.785156 117.613281 61.011719 117.847656 C 60.234375 118.082031 59.453125 118.277344 58.660156 118.4375 C 57.863281 118.59375 57.066406 118.710938 56.261719 118.789062 C 55.453125 118.871094 54.648438 118.910156 53.839844 118.910156 C 53.03125 118.910156 52.222656 118.871094 51.417969 118.789062 C 50.613281 118.710938 49.8125 118.59375 49.019531 118.4375 C 48.226562 118.277344 47.441406 118.082031 46.667969 117.847656 C 45.894531 117.613281 45.132812 117.339844 44.382812 117.03125 C 43.636719 116.722656 42.90625 116.378906 42.191406 115.996094 C 41.480469 115.617188 40.785156 115.203125 40.113281 114.753906 C 39.441406 114.304688 38.789062 113.824219 38.164062 113.3125 C 37.539062 112.800781 36.941406 112.257812 36.367188 111.6875 C 35.796875 111.113281 35.253906 110.515625 34.742188 109.890625 C 34.226562 109.269531 33.746094 108.621094 33.296875 107.949219 C 32.847656 107.277344 32.429688 106.585938 32.050781 105.871094 C 31.667969 105.160156 31.324219 104.429688 31.011719 103.683594 C 30.703125 102.9375 30.429688 102.179688 30.195312 101.40625 C 29.960938 100.632812 29.765625 99.851562 29.609375 99.058594 C 29.449219 98.265625 29.332031 97.46875 29.25 96.664062 C 29.171875 95.859375 29.132812 95.054688 29.132812 94.246094 C 29.132812 93.4375 29.171875 92.632812 29.25 91.828125 C 29.332031 91.023438 29.449219 90.226562 29.609375 89.433594 C 29.765625 88.644531 29.960938 87.859375 30.195312 87.085938 C 30.429688 86.3125 30.703125 85.554688 31.011719 84.808594 C 31.324219 84.0625 31.667969 83.332031 32.050781 82.621094 C 32.429688 81.90625 32.847656 81.214844 33.296875 80.542969 C 33.746094 79.871094 34.226562 79.226562 34.742188 78.601562 C 35.253906 77.976562 35.796875 77.378906 36.367188 76.808594 C 36.941406 76.234375 37.539062 75.695312 38.164062 75.179688 C 38.789062 74.667969 39.441406 74.1875 40.113281 73.738281 C 40.785156 73.289062 41.480469 72.875 42.191406 72.496094 C 42.90625 72.113281 43.636719 71.769531 44.382812 71.460938 C 45.132812 71.152344 45.894531 70.878906 46.667969 70.644531 C 47.441406 70.410156 48.226562 70.214844 49.019531 70.058594 C 49.8125 69.898438 50.613281 69.78125 51.417969 69.703125 C 52.222656 69.621094 53.03125 69.582031 53.839844 69.582031 C 54.648438 69.582031 55.453125 69.621094 56.261719 69.703125 C 57.066406 69.78125 57.863281 69.898438 58.660156 70.058594 C 59.453125 70.214844 60.234375 70.410156 61.011719 70.644531 C 61.785156 70.878906 62.546875 71.152344 63.292969 71.460938 C 64.039062 71.769531 64.769531 72.113281 65.484375 72.496094 C 66.199219 72.875 66.890625 73.289062 67.566406 73.738281 C 68.238281 74.1875 68.886719 74.667969 69.511719 75.179688 C 70.136719 75.695312 70.734375 76.234375 71.308594 76.808594 C 71.878906 77.378906 72.421875 77.976562 72.9375 78.601562 C 73.449219 79.226562 73.929688 79.871094 74.382812 80.542969 C 74.832031 81.214844 75.246094 81.90625 75.628906 82.621094 C 76.007812 83.332031 76.355469 84.0625 76.664062 84.808594 C 76.972656 85.554688 77.246094 86.3125 77.480469 87.085938 C 77.714844 87.859375 77.914062 88.644531 78.070312 89.433594 C 78.226562 90.226562 78.347656 91.023438 78.425781 91.828125 C 78.503906 92.632812 78.542969 93.4375 78.542969 94.246094 Z M 78.542969 94.246094 " fill-opacity="1" fill-rule="nonzero"/><path fill="#f3d32e" d="M 71.558594 94.246094 C 71.558594 94.824219 71.527344 95.402344 71.472656 95.980469 C 71.414062 96.554688 71.328125 97.128906 71.214844 97.695312 C 71.101562 98.265625 70.960938 98.828125 70.792969 99.378906 C 70.625 99.933594 70.429688 100.480469 70.207031 101.015625 C 69.984375 101.550781 69.738281 102.074219 69.464844 102.585938 C 69.191406 103.09375 68.894531 103.589844 68.570312 104.074219 C 68.25 104.554688 67.902344 105.019531 67.535156 105.46875 C 67.167969 105.914062 66.777344 106.34375 66.367188 106.753906 C 65.957031 107.164062 65.527344 107.550781 65.078125 107.917969 C 64.628906 108.285156 64.164062 108.632812 63.683594 108.953125 C 63.199219 109.273438 62.703125 109.574219 62.191406 109.84375 C 61.679688 110.117188 61.15625 110.367188 60.621094 110.585938 C 60.082031 110.808594 59.539062 111.003906 58.980469 111.171875 C 58.425781 111.339844 57.863281 111.480469 57.296875 111.59375 C 56.726562 111.707031 56.152344 111.792969 55.574219 111.847656 C 54.996094 111.90625 54.417969 111.933594 53.839844 111.933594 C 53.257812 111.933594 52.679688 111.90625 52.101562 111.847656 C 51.523438 111.792969 50.953125 111.707031 50.382812 111.59375 C 49.8125 111.480469 49.25 111.339844 48.695312 111.171875 C 48.140625 111.003906 47.59375 110.808594 47.058594 110.585938 C 46.523438 110.367188 46 110.117188 45.488281 109.84375 C 44.972656 109.574219 44.476562 109.273438 43.996094 108.953125 C 43.511719 108.632812 43.046875 108.285156 42.597656 107.917969 C 42.148438 107.550781 41.71875 107.164062 41.308594 106.753906 C 40.898438 106.34375 40.511719 105.914062 40.140625 105.46875 C 39.773438 105.019531 39.429688 104.554688 39.105469 104.074219 C 38.785156 103.589844 38.484375 103.09375 38.210938 102.585938 C 37.9375 102.074219 37.691406 101.550781 37.46875 101.015625 C 37.246094 100.480469 37.050781 99.933594 36.882812 99.382812 C 36.714844 98.828125 36.574219 98.265625 36.460938 97.695312 C 36.347656 97.128906 36.261719 96.554688 36.207031 95.980469 C 36.148438 95.402344 36.121094 94.824219 36.121094 94.246094 C 36.121094 93.667969 36.148438 93.089844 36.207031 92.511719 C 36.261719 91.9375 36.347656 91.363281 36.460938 90.796875 C 36.574219 90.226562 36.714844 89.667969 36.882812 89.113281 C 37.050781 88.558594 37.246094 88.011719 37.46875 87.476562 C 37.691406 86.941406 37.9375 86.417969 38.210938 85.910156 C 38.484375 85.398438 38.785156 84.902344 39.105469 84.417969 C 39.429688 83.9375 39.773438 83.472656 40.140625 83.027344 C 40.511719 82.578125 40.898438 82.148438 41.308594 81.738281 C 41.71875 81.328125 42.148438 80.941406 42.597656 80.574219 C 43.046875 80.207031 43.511719 79.863281 43.996094 79.539062 C 44.476562 79.21875 44.972656 78.921875 45.488281 78.648438 C 46 78.375 46.523438 78.125 47.058594 77.90625 C 47.59375 77.683594 48.140625 77.488281 48.695312 77.320312 C 49.25 77.152344 49.8125 77.011719 50.382812 76.898438 C 50.953125 76.785156 51.523438 76.699219 52.101562 76.644531 C 52.679688 76.585938 53.257812 76.558594 53.839844 76.558594 C 54.417969 76.558594 54.996094 76.585938 55.574219 76.644531 C 56.152344 76.699219 56.726562 76.785156 57.296875 76.898438 C 57.863281 77.011719 58.425781 77.152344 58.980469 77.320312 C 59.539062 77.488281 60.082031 77.683594 60.621094 77.90625 C 61.15625 78.125 61.679688 78.375 62.191406 78.648438 C 62.703125 78.921875 63.199219 79.21875 63.683594 79.539062 C 64.164062 79.863281 64.628906 80.207031 65.078125 80.574219 C 65.527344 80.941406 65.957031 81.328125 66.367188 81.738281 C 66.777344 82.148438 67.167969 82.578125 67.535156 83.027344 C 67.902344 83.472656 68.25 83.9375 68.570312 84.417969 C 68.894531 84.902344 69.191406 85.398438 69.464844 85.910156 C 69.738281 86.417969 69.984375 86.941406 70.207031 87.476562 C 70.429688 88.011719 70.625 88.558594 70.792969 89.113281 C 70.960938 89.667969 71.101562 90.226562 71.214844 90.796875 C 71.328125 91.363281 71.414062 91.9375 71.472656 92.511719 C 71.527344 93.089844 71.558594 93.667969 71.558594 94.246094 Z M 71.558594 94.246094 " fill-opacity="1" fill-rule="nonzero"/><path fill="#f2b630" d="M 64.820312 94.246094 C 64.820312 94.964844 64.75 95.679688 64.609375 96.386719 C 64.46875 97.089844 64.257812 97.777344 63.984375 98.441406 C 63.707031 99.105469 63.371094 99.738281 62.96875 100.335938 C 62.566406 100.933594 62.113281 101.488281 61.601562 101.996094 C 61.09375 102.507812 60.539062 102.960938 59.9375 103.359375 C 59.339844 103.761719 58.707031 104.097656 58.039062 104.375 C 57.375 104.648438 56.6875 104.855469 55.980469 104.996094 C 55.273438 105.136719 54.558594 105.207031 53.839844 105.207031 C 53.117188 105.207031 52.402344 105.136719 51.695312 104.996094 C 50.988281 104.855469 50.304688 104.648438 49.636719 104.375 C 48.96875 104.097656 48.335938 103.761719 47.738281 103.359375 C 47.140625 102.960938 46.585938 102.507812 46.074219 101.996094 C 45.566406 101.488281 45.109375 100.933594 44.707031 100.335938 C 44.308594 99.738281 43.96875 99.105469 43.695312 98.441406 C 43.417969 97.777344 43.210938 97.089844 43.070312 96.386719 C 42.929688 95.679688 42.859375 94.964844 42.859375 94.246094 C 42.859375 93.527344 42.929688 92.8125 43.070312 92.109375 C 43.210938 91.402344 43.417969 90.714844 43.695312 90.050781 C 43.96875 89.386719 44.308594 88.753906 44.707031 88.15625 C 45.109375 87.558594 45.566406 87.003906 46.074219 86.496094 C 46.585938 85.988281 47.140625 85.53125 47.738281 85.132812 C 48.335938 84.730469 48.96875 84.394531 49.636719 84.121094 C 50.304688 83.84375 50.988281 83.636719 51.695312 83.496094 C 52.402344 83.355469 53.117188 83.285156 53.839844 83.285156 C 54.558594 83.285156 55.273438 83.355469 55.980469 83.496094 C 56.6875 83.636719 57.375 83.84375 58.039062 84.121094 C 58.707031 84.394531 59.339844 84.730469 59.9375 85.132812 C 60.539062 85.53125 61.09375 85.988281 61.601562 86.496094 C 62.113281 87.003906 62.566406 87.558594 62.96875 88.15625 C 63.371094 88.753906 63.707031 89.386719 63.984375 90.050781 C 64.257812 90.714844 64.46875 91.402344 64.609375 92.109375 C 64.75 92.8125 64.820312 93.527344 64.820312 94.246094 Z M 64.820312 94.246094 " fill-opacity="1" fill-rule="nonzero"/><path fill="#f2b630" d="M 75.550781 70.519531 L 75.550781 90.757812 L 21.839844 90.757812 C 21.714844 91.90625 21.644531 93.066406 21.644531 94.246094 C 21.644531 111.996094 36.058594 126.382812 53.839844 126.382812 C 71.617188 126.382812 86.03125 111.996094 86.03125 94.246094 C 86.03125 84.851562 81.988281 76.398438 75.550781 70.519531 Z M 75.550781 70.519531 " fill-opacity="1" fill-rule="nonzero"/><path fill="#ef7a36" d="M 75.550781 82.46875 L 75.550781 90.757812 L 29.382812 90.757812 C 29.222656 91.898438 29.132812 93.0625 29.132812 94.246094 C 29.132812 107.867188 40.195312 118.910156 53.839844 118.910156 C 67.484375 118.910156 78.542969 107.867188 78.542969 94.246094 C 78.542969 89.980469 77.460938 85.96875 75.550781 82.46875 Z M 75.550781 82.46875 " fill-opacity="1" fill-rule="nonzero"/><path fill="#f3d32e" d="M 36.464844 90.757812 C 36.242188 91.886719 36.121094 93.054688 36.121094 94.246094 C 36.121094 104.015625 44.054688 111.933594 53.839844 111.933594 C 63.625 111.933594 71.558594 104.015625 71.558594 94.246094 C 71.558594 93.054688 71.4375 91.886719 71.210938 90.757812 Z M 36.464844 90.757812 " fill-opacity="1" fill-rule="nonzero"/><path fill="#f2b630" d="M 43.433594 90.757812 C 43.066406 91.855469 42.859375 93.027344 42.859375 94.246094 C 42.859375 100.300781 47.773438 105.207031 53.839844 105.207031 C 59.902344 105.207031 64.820312 100.300781 64.820312 94.246094 C 64.820312 93.027344 64.609375 91.855469 64.242188 90.757812 Z M 43.433594 90.757812 " fill-opacity="1" fill-rule="nonzero"/><path fill="#d35215" d="M 75.019531 91.507812 L 75.019531 136.347656 L 115.714844 136.347656 C 128.042969 136.347656 138.035156 126.371094 138.035156 114.066406 L 138.035156 91.507812 Z M 75.019531 91.507812 " fill-opacity="1" fill-rule="nonzero"/><path fill="#ef7a36" d="M 75.300781 91.507812 L 10.417969 91.507812 L 10.417969 112.230469 C 10.417969 125.550781 21.230469 136.347656 34.574219 136.347656 L 75.300781 136.347656 Z M 75.300781 91.507812 " fill-opacity="1" fill-rule="nonzero"/><g clip-path="url(#id5)"><path fill="#ef7a36" d="M 75.300781 130.367188 L 36.621094 130.367188 L 36.621094 137.59375 C 36.621094 140.207031 38.742188 142.328125 41.359375 142.328125 L 75.300781 142.328125 Z M 75.300781 130.367188 " fill-opacity="1" fill-rule="nonzero"/></g><g clip-path="url(#id6)"><path fill="#d35215" d="M 113.980469 130.367188 L 75.300781 130.367188 L 75.300781 142.328125 L 109.511719 142.328125 C 111.980469 142.328125 113.980469 140.328125 113.980469 137.863281 Z M 113.980469 130.367188 " fill-opacity="1" fill-rule="nonzero"/></g><path fill="#cc1417" d="M 75.300781 89.015625 L 75.300781 99.871094 L 137.597656 99.871094 C 139.636719 99.871094 141.289062 98.222656 141.289062 96.1875 L 141.289062 91.960938 C 141.289062 90.335938 139.96875 89.015625 138.335938 89.015625 Z M 75.300781 89.015625 " fill-opacity="1" fill-rule="nonzero"/><path fill="#d35215" d="M 9.3125 92.609375 L 9.3125 96.328125 C 9.3125 98.285156 10.898438 99.871094 12.859375 99.871094 L 75.300781 99.871094 L 75.300781 89.015625 L 12.910156 89.015625 C 10.921875 89.015625 9.3125 90.625 9.3125 92.609375 Z M 9.3125 92.609375 " fill-opacity="1" fill-rule="nonzero"/></svg>