<?xml version="1.0" encoding="UTF-8"?> <svg xmlns="http://www.w3.org/2000/svg" width="30.101" height="30.102" viewBox="0 0 30.101 30.102"><path id="twitter" d="M278.051,1640.954a15.051,15.051,0,1,0,15.05,15.051A15.051,15.051,0,0,0,278.051,1640.954Zm9.21,9.263a.448.448,0,0,1-.091.295,7.345,7.345,0,0,1-1.476,1.542c-.085.064-.226.13-.226.25a11.432,11.432,0,0,1-3.016,8.341,11.223,11.223,0,0,1-10.9,2.548,10.344,10.344,0,0,1-2.108-.843c-.222-.121-.441-.247-.656-.389-.055-.044-.1-.085-.049-.113s.082-.025.251,0a7.428,7.428,0,0,0,3.153-.4,4.808,4.808,0,0,0,2.076-1.1c.007-.012.016-.012.024-.024-.138-.033-.276-.033-.414-.057a4.067,4.067,0,0,1-3.039-2.545c-.04-.1,0-.154.1-.133a4.4,4.4,0,0,0,1.447-.045,2.266,2.266,0,0,1-.49-.15,3.922,3.922,0,0,1-2.416-3.125,2.348,2.348,0,0,1-.024-.437c.008-.1.053-.134.142-.078a3.9,3.9,0,0,0,1.475.414c-.166-.13-.32-.272-.47-.414a3.876,3.876,0,0,1-.661-4.579c.074-.11.122-.11.211-.008a11.882,11.882,0,0,0,7.644,3.891c.081.012.088,0,.076-.09a4.109,4.109,0,0,1,.04-1.6,3.889,3.889,0,0,1,.756-1.513,4.037,4.037,0,0,1,1.265-1.033,3.961,3.961,0,0,1,1.567-.443,3.764,3.764,0,0,1,1.653.266,3.94,3.94,0,0,1,1.078.661,1.728,1.728,0,0,1,.194.2.148.148,0,0,0,.153.041,9.581,9.581,0,0,0,2.225-.851.1.1,0,0,1,.1-.008c.032.024.02.065,0,.1a3.449,3.449,0,0,1-.624,1.136c-.178.221-.622.767-.924.818a7.657,7.657,0,0,0,1.873-.535c.075-.035.069-.049.069,0Z" transform="translate(-263 -1640.954)" fill="#c7c9c7"></path></svg> 