<?xml version="1.0" encoding="UTF-8"?> <svg xmlns="http://www.w3.org/2000/svg" width="29.829" height="29.829" viewBox="0 0 29.829 29.829"><g id="youtube" transform="translate(-387.577 -1681.467)"><path id="Trazado_88" data-name="Trazado 88" d="M402.492,1681.467a14.915,14.915,0,0,0-14.915,14.915h0a14.915,14.915,0,0,0,29.829,0h0A14.915,14.915,0,0,0,402.492,1681.467Zm8.964,19.448a2.349,2.349,0,0,1-1.654,1.664,68.011,68.011,0,0,1-14.621,0,2.349,2.349,0,0,1-1.654-1.664,26.471,26.471,0,0,1,0-9.066,2.352,2.352,0,0,1,1.654-1.665,68.032,68.032,0,0,1,14.621,0,2.352,2.352,0,0,1,1.654,1.665,26.473,26.473,0,0,1,0,9.066Z" fill="#c7c9c7"></path><path id="Trazado_89" data-name="Trazado 89" d="M400.578,1699.164V1693.6l4.89,2.782Z" fill="#c7c9c7"></path></g></svg> 